<?xml version="1.0" encoding="UTF-8"?>
<!DOCTYPE score-partwise PUBLIC "-//Recordare//DTD MusicXML 3.1 Partwise//EN" "http://www.musicxml.org/dtds/partwise.dtd">
<score-partwise version="3.1">
  <identification>
    <encoding>
      <software>MuseScore 3.6.2</software>
      <encoding-date>2021-10-25</encoding-date>
      <supports element="accidental" type="yes"/>
      <supports element="beam" type="yes"/>
      <supports element="print" attribute="new-page" type="yes" value="yes"/>
      <supports element="print" attribute="new-system" type="yes" value="yes"/>
      <supports element="stem" type="yes"/>
      </encoding>
    </identification>
  <defaults>
    <scaling>
      <millimeters>7</millimeters>
      <tenths>40</tenths>
      </scaling>
    <page-layout>
      <page-height>1697.14</page-height>
      <page-width>1200</page-width>
      <page-margins type="both">
        <left-margin>57.1429</left-margin>
        <right-margin>57.1429</right-margin>
        <top-margin>57.1429</top-margin>
        <bottom-margin>57.1429</bottom-margin>
        </page-margins>
      </page-layout>
    <word-font font-family="Edwin" font-size="10"/>
    <lyric-font font-family="Edwin" font-size="10"/>
    </defaults>
  <part-list>
    <score-part id="P1">
      <part-name>ピアノ, Melody</part-name>
      <part-abbreviation>Pno.</part-abbreviation>
      <score-instrument id="P1-I1">
        <instrument-name>ピアノ</instrument-name>
        </score-instrument>
      <midi-device id="P1-I1" port="1"></midi-device>
      <midi-instrument id="P1-I1">
        <midi-channel>1</midi-channel>
        <midi-program>1</midi-program>
        <volume>78.7402</volume>
        <pan>0</pan>
        </midi-instrument>
      </score-part>
    </part-list>
  <part id="P1">
    <measure number="1" width="544.62">
      <print>
        <system-layout>
          <system-margins>
            <left-margin>50.00</left-margin>
            <right-margin>0.00</right-margin>
            </system-margins>
          <top-system-distance>170.00</top-system-distance>
          </system-layout>
        </print>
      <attributes>
        <divisions>2</divisions>
        <key>
          <fifths>0</fifths>
          </key>
        <time>
          <beats>4</beats>
          <beat-type>4</beat-type>
          </time>
        <clef>
          <sign>G</sign>
          <line>2</line>
          </clef>
        </attributes>
      <direction placement="above">
        <direction-type>
          <metronome parentheses="no" default-x="-30.68" relative-y="20.00">
            <beat-unit>quarter</beat-unit>
            <per-minute>285</per-minute>
            </metronome>
          </direction-type>
        <sound tempo="285"/>
        </direction>
      <note>
        <rest measure="yes"/>
        <duration>8</duration>
        <voice>1</voice>
        </note>
      </measure>
    <measure number="2" width="491.10">
      <note>
        <rest measure="yes"/>
        <duration>8</duration>
        <voice>1</voice>
        </note>
      </measure>
    <measure number="3" width="562.91">
      <print new-system="yes">
        <system-layout>
          <system-margins>
            <left-margin>0.00</left-margin>
            <right-margin>0.00</right-margin>
            </system-margins>
          <system-distance>90.29</system-distance>
          </system-layout>
        </print>
      <note>
        <rest measure="yes"/>
        <duration>8</duration>
        <voice>1</voice>
        </note>
      </measure>
    <measure number="4" width="522.80">
      <note>
        <rest measure="yes"/>
        <duration>8</duration>
        <voice>1</voice>
        <notations>
          <articulations>
            <breath-mark/>
            </articulations>
          </notations>
        </note>
      </measure>
    <measure number="5" width="563.64">
      <print new-system="yes">
        <system-layout>
          <system-margins>
            <left-margin>0.00</left-margin>
            <right-margin>0.00</right-margin>
            </system-margins>
          <system-distance>90.29</system-distance>
          </system-layout>
        </print>
      <note default-x="58.59" default-y="-15.00" dynamics="111.11">
        <pitch>
          <step>C</step>
          <octave>5</octave>
          </pitch>
        <duration>8</duration>
        <tie type="start"/>
        <voice>1</voice>
        <type>whole</type>
        <notations>
          <tied type="start"/>
          </notations>
        <lyric number="1" default-x="7.46" default-y="-40.00" relative-y="-30.00">
          <syllabic>single</syllabic>
          <text>あ</text>
          </lyric>
        </note>
      </measure>
    <measure number="6" width="522.07">
      <note default-x="13.96" default-y="-15.00" dynamics="111.11">
        <pitch>
          <step>C</step>
          <octave>5</octave>
          </pitch>
        <duration>8</duration>
        <tie type="stop"/>
        <tie type="start"/>
        <voice>1</voice>
        <type>whole</type>
        <notations>
          <tied type="stop"/>
          <tied type="start"/>
          </notations>
        </note>
      </measure>
    <measure number="7" width="563.01">
      <print new-system="yes">
        <system-layout>
          <system-margins>
            <left-margin>0.00</left-margin>
            <right-margin>0.00</right-margin>
            </system-margins>
          <system-distance>90.29</system-distance>
          </system-layout>
        </print>
      <note default-x="58.59" default-y="-15.00" dynamics="111.11">
        <pitch>
          <step>C</step>
          <octave>5</octave>
          </pitch>
        <duration>8</duration>
        <tie type="stop"/>
        <tie type="start"/>
        <voice>1</voice>
        <type>whole</type>
        <notations>
          <tied type="stop"/>
          <tied type="start"/>
          </notations>
        </note>
      </measure>
    <measure number="8" width="522.70">
      <note default-x="13.96" default-y="-15.00" dynamics="111.11">
        <pitch>
          <step>C</step>
          <octave>5</octave>
          </pitch>
        <duration>8</duration>
        <tie type="stop"/>
        <tie type="start"/>
        <voice>1</voice>
        <type>whole</type>
        <notations>
          <tied type="stop"/>
          <tied type="start"/>
          </notations>
        </note>
      </measure>
    <measure number="9" width="563.01">
      <print new-system="yes">
        <system-layout>
          <system-margins>
            <left-margin>0.00</left-margin>
            <right-margin>0.00</right-margin>
            </system-margins>
          <system-distance>90.29</system-distance>
          </system-layout>
        </print>
      <note default-x="58.59" default-y="-15.00" dynamics="111.11">
        <pitch>
          <step>C</step>
          <octave>5</octave>
          </pitch>
        <duration>8</duration>
        <tie type="stop"/>
        <tie type="start"/>
        <voice>1</voice>
        <type>whole</type>
        <notations>
          <tied type="stop"/>
          <tied type="start"/>
          </notations>
        </note>
      </measure>
    <measure number="10" width="522.70">
      <note default-x="13.96" default-y="-15.00">
        <pitch>
          <step>C</step>
          <octave>5</octave>
          </pitch>
        <duration>8</duration>
        <tie type="stop"/>
        <voice>1</voice>
        <type>whole</type>
        <notations>
          <tied type="stop"/>
          </notations>
        </note>
      </measure>
    <measure number="11" width="562.05">
      <print new-system="yes">
        <system-layout>
          <system-margins>
            <left-margin>0.00</left-margin>
            <right-margin>0.00</right-margin>
            </system-margins>
          <system-distance>90.29</system-distance>
          </system-layout>
        </print>
      <note>
        <rest measure="yes"/>
        <duration>8</duration>
        <voice>1</voice>
        </note>
      </measure>
    <measure number="12" width="523.66">
      <note>
        <rest measure="yes"/>
        <duration>8</duration>
        <voice>1</voice>
        </note>
      </measure>
    <measure number="13" width="562.05">
      <print new-system="yes">
        <system-layout>
          <system-margins>
            <left-margin>0.00</left-margin>
            <right-margin>0.00</right-margin>
            </system-margins>
          <system-distance>90.29</system-distance>
          </system-layout>
        </print>
      <note>
        <rest measure="yes"/>
        <duration>8</duration>
        <voice>1</voice>
        </note>
      </measure>
    <measure number="14" width="523.66">
      <note>
        <rest measure="yes"/>
        <duration>8</duration>
        <voice>1</voice>
        </note>
      </measure>
    <measure number="15" width="559.51">
      <print new-system="yes">
        <system-layout>
          <system-margins>
            <left-margin>0.00</left-margin>
            <right-margin>0.00</right-margin>
            </system-margins>
          <system-distance>90.29</system-distance>
          </system-layout>
        </print>
      <note>
        <rest/>
        <duration>4</duration>
        <voice>1</voice>
        <type>half</type>
        </note>
      <note>
        <rest/>
        <duration>2</duration>
        <voice>1</voice>
        <type>quarter</type>
        <notations>
          <articulations>
            <breath-mark/>
            </articulations>
          </notations>
        </note>
      <note default-x="424.37" default-y="-25.00" dynamics="111.11">
        <pitch>
          <step>A</step>
          <octave>4</octave>
          </pitch>
        <duration>2</duration>
        <voice>1</voice>
        <type>quarter</type>
        <stem>up</stem>
        <lyric number="1" default-x="6.50" default-y="-41.93" relative-y="-30.00">
          <syllabic>single</syllabic>
          <text>ふ</text>
          </lyric>
        </note>
      </measure>
    <measure number="16" width="526.20">
      <note default-x="14.81" default-y="-30.00" dynamics="111.11">
        <pitch>
          <step>G</step>
          <octave>4</octave>
          </pitch>
        <duration>2</duration>
        <voice>1</voice>
        <type>quarter</type>
        <stem>up</stem>
        <lyric number="1" default-x="6.50" default-y="-41.93" relative-y="-30.00">
          <syllabic>single</syllabic>
          <text>て</text>
          </lyric>
        </note>
      <note default-x="142.21" default-y="-40.00" dynamics="111.11">
        <pitch>
          <step>E</step>
          <octave>4</octave>
          </pitch>
        <duration>2</duration>
        <voice>1</voice>
        <type>quarter</type>
        <stem>up</stem>
        <lyric number="1" default-x="6.50" default-y="-41.93" relative-y="-30.00">
          <syllabic>single</syllabic>
          <text>き</text>
          </lyric>
        </note>
      <note default-x="269.60" default-y="-40.00" dynamics="111.11">
        <pitch>
          <step>E</step>
          <octave>4</octave>
          </pitch>
        <duration>2</duration>
        <voice>1</voice>
        <type>quarter</type>
        <stem>up</stem>
        <lyric number="1" default-x="6.50" default-y="-41.93" relative-y="-30.00">
          <syllabic>single</syllabic>
          <text>な</text>
          </lyric>
        </note>
      <note default-x="397.00" default-y="-30.00" dynamics="111.11">
        <pitch>
          <step>G</step>
          <octave>4</octave>
          </pitch>
        <duration>2</duration>
        <voice>1</voice>
        <type>quarter</type>
        <stem>up</stem>
        <lyric number="1" default-x="6.50" default-y="-41.93" relative-y="-30.00">
          <syllabic>single</syllabic>
          <text>え</text>
          </lyric>
        </note>
      </measure>
    <measure number="17" width="544.05">
      <print new-system="yes">
        <system-layout>
          <system-margins>
            <left-margin>0.00</left-margin>
            <right-margin>0.00</right-margin>
            </system-margins>
          <system-distance>90.29</system-distance>
          </system-layout>
        </print>
      <note default-x="58.59" default-y="-25.00" dynamics="111.11">
        <pitch>
          <step>A</step>
          <octave>4</octave>
          </pitch>
        <duration>6</duration>
        <voice>1</voice>
        <type>half</type>
        <dot/>
        <stem>up</stem>
        <lyric number="1" default-x="6.50" default-y="-41.93" relative-y="-30.00">
          <syllabic>single</syllabic>
          <text>み</text>
          </lyric>
        </note>
      <note default-x="378.36" default-y="-25.00" dynamics="111.11">
        <pitch>
          <step>A</step>
          <octave>4</octave>
          </pitch>
        <duration>2</duration>
        <voice>1</voice>
        <type>quarter</type>
        <stem>up</stem>
        <lyric number="1" default-x="6.50" default-y="-41.93" relative-y="-30.00">
          <syllabic>single</syllabic>
          <text>か</text>
          </lyric>
        </note>
      </measure>
    <measure number="18" width="541.66">
      <note default-x="14.61" default-y="-30.00" dynamics="111.11">
        <pitch>
          <step>G</step>
          <octave>4</octave>
          </pitch>
        <duration>2</duration>
        <voice>1</voice>
        <type>quarter</type>
        <stem>up</stem>
        <lyric number="1" default-x="6.50" default-y="-41.93" relative-y="-30.00">
          <syllabic>single</syllabic>
          <text>ざ</text>
          </lyric>
        </note>
      <note default-x="145.92" default-y="-40.00" dynamics="111.11">
        <pitch>
          <step>E</step>
          <octave>4</octave>
          </pitch>
        <duration>2</duration>
        <voice>1</voice>
        <type>quarter</type>
        <stem>up</stem>
        <lyric number="1" default-x="6.50" default-y="-41.93" relative-y="-30.00">
          <syllabic>single</syllabic>
          <text>す</text>
          </lyric>
        </note>
      <note default-x="277.23" default-y="-40.00" dynamics="111.11">
        <pitch>
          <step>E</step>
          <octave>4</octave>
          </pitch>
        <duration>2</duration>
        <voice>1</voice>
        <type>quarter</type>
        <stem>up</stem>
        <lyric number="1" default-x="6.50" default-y="-41.93" relative-y="-30.00">
          <syllabic>single</syllabic>
          <text>か</text>
          </lyric>
        </note>
      <note default-x="408.55" default-y="-30.00" dynamics="111.11">
        <pitch>
          <step>G</step>
          <octave>4</octave>
          </pitch>
        <duration>2</duration>
        <voice>1</voice>
        <type>quarter</type>
        <stem>up</stem>
        <lyric number="1" default-x="6.50" default-y="-41.93" relative-y="-30.00">
          <syllabic>single</syllabic>
          <text>か</text>
          </lyric>
        </note>
      </measure>
    <measure number="19" width="552.16">
      <print new-system="yes">
        <system-layout>
          <system-margins>
            <left-margin>0.00</left-margin>
            <right-margin>0.00</right-margin>
            </system-margins>
          <system-distance>90.29</system-distance>
          </system-layout>
        </print>
      <note default-x="58.59" default-y="-25.00" dynamics="111.11">
        <pitch>
          <step>A</step>
          <octave>4</octave>
          </pitch>
        <duration>6</duration>
        <voice>1</voice>
        <type>half</type>
        <dot/>
        <stem>up</stem>
        <notations>
          <articulations>
            <breath-mark/>
            </articulations>
          </notations>
        <lyric number="1" default-x="6.50" default-y="-41.53" relative-y="-30.00">
          <syllabic>single</syllabic>
          <text>と</text>
          </lyric>
        </note>
      <note default-x="390.18" default-y="-25.00" dynamics="111.11">
        <pitch>
          <step>A</step>
          <octave>4</octave>
          </pitch>
        <duration>2</duration>
        <voice>1</voice>
        <type>quarter</type>
        <stem>up</stem>
        <lyric number="1" default-x="6.50" default-y="-41.53" relative-y="-30.00">
          <syllabic>single</syllabic>
          <text>い</text>
          </lyric>
        </note>
      </measure>
    <measure number="20" width="533.55">
      <note default-x="15.01" default-y="-30.00" dynamics="111.11">
        <pitch>
          <step>G</step>
          <octave>4</octave>
          </pitch>
        <duration>2</duration>
        <voice>1</voice>
        <type>quarter</type>
        <stem>up</stem>
        <lyric number="1" default-x="6.50" default-y="-41.53" relative-y="-30.00">
          <syllabic>single</syllabic>
          <text>い</text>
          </lyric>
        </note>
      <note default-x="144.20" default-y="-40.00" dynamics="111.11">
        <pitch>
          <step>E</step>
          <octave>4</octave>
          </pitch>
        <duration>2</duration>
        <voice>1</voice>
        <type>quarter</type>
        <stem>up</stem>
        <lyric number="1" default-x="6.50" default-y="-41.53" relative-y="-30.00">
          <syllabic>single</syllabic>
          <text>わ</text>
          </lyric>
        </note>
      <note default-x="273.38" default-y="-40.00" dynamics="111.11">
        <pitch>
          <step>E</step>
          <octave>4</octave>
          </pitch>
        <duration>2</duration>
        <voice>1</voice>
        <type>quarter</type>
        <stem>up</stem>
        <lyric number="1" default-x="6.50" default-y="-41.53" relative-y="-30.00">
          <syllabic>single</syllabic>
          <text>け</text>
          </lyric>
        </note>
      <note default-x="402.57" default-y="-30.00" dynamics="111.11">
        <pitch>
          <step>G</step>
          <octave>4</octave>
          </pitch>
        <duration>2</duration>
        <voice>1</voice>
        <type>quarter</type>
        <stem>up</stem>
        <lyric number="1" default-x="6.50" default-y="-41.53" relative-y="-30.00">
          <syllabic>single</syllabic>
          <text>わ</text>
          </lyric>
        </note>
      </measure>
    <measure number="21" width="544.38">
      <print new-system="yes">
        <system-layout>
          <system-margins>
            <left-margin>0.00</left-margin>
            <right-margin>0.00</right-margin>
            </system-margins>
          <system-distance>90.29</system-distance>
          </system-layout>
        </print>
      <note default-x="58.59" default-y="-25.00" dynamics="111.11">
        <pitch>
          <step>A</step>
          <octave>4</octave>
          </pitch>
        <duration>2</duration>
        <voice>1</voice>
        <type>quarter</type>
        <stem>up</stem>
        <lyric number="1" default-x="6.50" default-y="-48.33" relative-y="-30.00">
          <syllabic>single</syllabic>
          <text>だ</text>
          </lyric>
        </note>
      <note default-x="179.59" default-y="-20.00" dynamics="111.11">
        <pitch>
          <step>B</step>
          <octave>4</octave>
          </pitch>
        <duration>2</duration>
        <voice>1</voice>
        <type>quarter</type>
        <stem>down</stem>
        <lyric number="1" default-x="6.50" default-y="-48.33" relative-y="-30.00">
          <syllabic>single</syllabic>
          <text>ん</text>
          </lyric>
        </note>
      <note default-x="300.58" default-y="-15.00" dynamics="111.11">
        <pitch>
          <step>C</step>
          <octave>5</octave>
          </pitch>
        <duration>2</duration>
        <voice>1</voice>
        <type>quarter</type>
        <stem>down</stem>
        <lyric number="1" default-x="6.50" default-y="-48.33" relative-y="-30.00">
          <syllabic>single</syllabic>
          <text>と</text>
          </lyric>
        </note>
      <note default-x="421.58" default-y="-20.00" dynamics="111.11">
        <pitch>
          <step>B</step>
          <octave>4</octave>
          </pitch>
        <duration>2</duration>
        <voice>1</voice>
        <type>quarter</type>
        <stem>down</stem>
        <lyric number="1" default-x="6.50" default-y="-48.33" relative-y="-30.00">
          <syllabic>single</syllabic>
          <text>お</text>
          </lyric>
        </note>
      </measure>
    <measure number="22" width="541.34">
      <note default-x="15.21" default-y="-15.00" dynamics="111.11">
        <pitch>
          <step>C</step>
          <octave>5</octave>
          </pitch>
        <duration>1</duration>
        <voice>1</voice>
        <type>eighth</type>
        <stem>down</stem>
        <beam number="1">begin</beam>
        <lyric number="1" default-x="6.50" default-y="-48.33" relative-y="-30.00">
          <syllabic>single</syllabic>
          <text>だ</text>
          </lyric>
        </note>
      <note default-x="88.03" default-y="-10.00" dynamics="111.11">
        <pitch>
          <step>D</step>
          <octave>5</octave>
          </pitch>
        <duration>1</duration>
        <voice>1</voice>
        <type>eighth</type>
        <stem>down</stem>
        <beam number="1">end</beam>
        <lyric number="1" default-x="6.50" default-y="-48.33" relative-y="-30.00">
          <syllabic>single</syllabic>
          <text>い</text>
          </lyric>
        </note>
      <note>
        <rest/>
        <duration>1</duration>
        <voice>1</voice>
        <type>eighth</type>
        </note>
      <note default-x="233.68" default-y="-25.00" dynamics="111.11">
        <pitch>
          <step>A</step>
          <octave>4</octave>
          </pitch>
        <duration>1</duration>
        <tie type="start"/>
        <voice>1</voice>
        <type>eighth</type>
        <stem>up</stem>
        <notations>
          <tied type="start"/>
          </notations>
        <lyric number="1" default-x="6.50" default-y="-48.33" relative-y="-30.00">
          <syllabic>single</syllabic>
          <text>で</text>
          </lyric>
        </note>
      <note default-x="306.50" default-y="-25.00" dynamics="111.11">
        <pitch>
          <step>A</step>
          <octave>4</octave>
          </pitch>
        <duration>2</duration>
        <tie type="stop"/>
        <voice>1</voice>
        <type>quarter</type>
        <stem>up</stem>
        <notations>
          <tied type="stop"/>
          </notations>
        </note>
      <note>
        <rest/>
        <duration>2</duration>
        <voice>1</voice>
        <type>quarter</type>
        </note>
      </measure>
    <measure number="23" width="541.78">
      <print new-page="yes">
        <system-layout>
          <system-margins>
            <left-margin>0.00</left-margin>
            <right-margin>0.00</right-margin>
            </system-margins>
          <top-system-distance>70.00</top-system-distance>
          </system-layout>
        </print>
      <note default-x="58.59" default-y="-25.00" dynamics="111.11">
        <pitch>
          <step>A</step>
          <octave>4</octave>
          </pitch>
        <duration>2</duration>
        <voice>1</voice>
        <type>quarter</type>
        <stem>up</stem>
        <lyric number="1" default-x="6.50" default-y="-48.33" relative-y="-30.00">
          <syllabic>single</syllabic>
          <text>き</text>
          </lyric>
        </note>
      <note default-x="178.94" default-y="-20.00" dynamics="111.11">
        <pitch>
          <step>B</step>
          <octave>4</octave>
          </pitch>
        <duration>2</duration>
        <voice>1</voice>
        <type>quarter</type>
        <stem>down</stem>
        <lyric number="1" default-x="6.50" default-y="-48.33" relative-y="-30.00">
          <syllabic>single</syllabic>
          <text>い</text>
          </lyric>
        </note>
      <note default-x="299.29" default-y="-15.00" dynamics="111.11">
        <pitch>
          <step>C</step>
          <octave>5</octave>
          </pitch>
        <duration>2</duration>
        <voice>1</voice>
        <type>quarter</type>
        <stem>down</stem>
        <lyric number="1" default-x="6.50" default-y="-48.33" relative-y="-30.00">
          <syllabic>single</syllabic>
          <text>て</text>
          </lyric>
        </note>
      <note default-x="419.63" default-y="-20.00" dynamics="111.11">
        <pitch>
          <step>B</step>
          <octave>4</octave>
          </pitch>
        <duration>2</duration>
        <voice>1</voice>
        <type>quarter</type>
        <stem>down</stem>
        <lyric number="1" default-x="6.50" default-y="-48.33" relative-y="-30.00">
          <syllabic>single</syllabic>
          <text>あ</text>
          </lyric>
        </note>
      </measure>
    <measure number="24" width="543.94">
      <note default-x="15.41" default-y="-15.00" dynamics="111.11">
        <pitch>
          <step>C</step>
          <octave>5</octave>
          </pitch>
        <duration>1</duration>
        <voice>1</voice>
        <type>eighth</type>
        <stem>down</stem>
        <beam number="1">begin</beam>
        <lyric number="1" default-x="6.50" default-y="-48.33" relative-y="-30.00">
          <syllabic>single</syllabic>
          <text>げ</text>
          </lyric>
        </note>
      <note default-x="85.64" default-y="-10.00" dynamics="111.11">
        <pitch>
          <step>D</step>
          <octave>5</octave>
          </pitch>
        <duration>1</duration>
        <voice>1</voice>
        <type>eighth</type>
        <stem>down</stem>
        <beam number="1">end</beam>
        <lyric number="1" default-x="6.50" default-y="-48.33" relative-y="-30.00">
          <syllabic>single</syllabic>
          <text>る</text>
          </lyric>
        </note>
      <note>
        <rest/>
        <duration>1</duration>
        <voice>1</voice>
        <type>eighth</type>
        </note>
      <note default-x="226.10" default-y="-25.00" dynamics="111.11">
        <pitch>
          <step>A</step>
          <octave>4</octave>
          </pitch>
        <duration>1</duration>
        <tie type="start"/>
        <voice>1</voice>
        <type>eighth</type>
        <stem>up</stem>
        <notations>
          <tied type="start"/>
          </notations>
        <lyric number="1" default-x="6.50" default-y="-48.33" relative-y="-30.00">
          <syllabic>single</syllabic>
          <text>わ</text>
          </lyric>
        </note>
      <note default-x="296.33" default-y="-25.00" dynamics="111.11">
        <pitch>
          <step>A</step>
          <octave>4</octave>
          </pitch>
        <duration>2</duration>
        <tie type="stop"/>
        <voice>1</voice>
        <type>quarter</type>
        <stem>up</stem>
        <notations>
          <tied type="stop"/>
          </notations>
        </note>
      <note>
        <rest/>
        <duration>2</duration>
        <voice>1</voice>
        <type>quarter</type>
        <notations>
          <articulations>
            <breath-mark/>
            </articulations>
          </notations>
        </note>
      </measure>
    <measure number="25" width="539.23">
      <print new-page="yes">
        <system-layout>
          <system-margins>
            <left-margin>0.00</left-margin>
            <right-margin>0.00</right-margin>
            </system-margins>
          <top-system-distance>70.00</top-system-distance>
          </system-layout>
        </print>
      <note default-x="58.59" default-y="-15.00" dynamics="111.11">
        <pitch>
          <step>C</step>
          <octave>5</octave>
          </pitch>
        <duration>4</duration>
        <voice>1</voice>
        <type>half</type>
        <stem>down</stem>
        <lyric number="1" default-x="6.50" default-y="-47.93" relative-y="-30.00">
          <syllabic>single</syllabic>
          <text>ふぃ</text>
          </lyric>
        </note>
      <note default-x="298.01" default-y="-15.00" dynamics="111.11">
        <pitch>
          <step>C</step>
          <octave>5</octave>
          </pitch>
        <duration>4</duration>
        <voice>1</voice>
        <type>half</type>
        <stem>down</stem>
        <lyric number="1" default-x="6.50" default-y="-47.93" relative-y="-30.00">
          <syllabic>single</syllabic>
          <text>れ</text>
          </lyric>
        </note>
      </measure>
    <measure number="26" width="546.48">
      <note default-x="15.61" default-y="-20.00" dynamics="111.11">
        <pitch>
          <step>B</step>
          <octave>4</octave>
          </pitch>
        <duration>2</duration>
        <voice>1</voice>
        <type>quarter</type>
        <stem>down</stem>
        <lyric number="1" default-x="6.50" default-y="-47.93" relative-y="-30.00">
          <syllabic>single</syllabic>
          <text>ん</text>
          </lyric>
        </note>
      <note default-x="147.88" default-y="-30.00" dynamics="111.11">
        <pitch>
          <step>G</step>
          <octave>4</octave>
          </pitch>
        <duration>2</duration>
        <voice>1</voice>
        <type>quarter</type>
        <stem>up</stem>
        <lyric number="1" default-x="6.50" default-y="-47.93" relative-y="-30.00">
          <syllabic>single</syllabic>
          <text>つぇ</text>
          </lyric>
        </note>
      <note default-x="280.15" default-y="-40.00" dynamics="111.11">
        <pitch>
          <step>E</step>
          <octave>4</octave>
          </pitch>
        <duration>2</duration>
        <voice>1</voice>
        <type>quarter</type>
        <stem>up</stem>
        <lyric number="1" default-x="6.50" default-y="-47.93" relative-y="-30.00">
          <syllabic>single</syllabic>
          <text>ま</text>
          </lyric>
        </note>
      <note default-x="412.41" default-y="-30.00" dynamics="111.11">
        <pitch>
          <step>G</step>
          <octave>4</octave>
          </pitch>
        <duration>2</duration>
        <voice>1</voice>
        <type>quarter</type>
        <stem>up</stem>
        <lyric number="1" default-x="6.50" default-y="-47.93" relative-y="-30.00">
          <syllabic>single</syllabic>
          <text>で</text>
          </lyric>
        </note>
      </measure>
    <measure number="27" width="529.37">
      <print new-system="yes">
        <system-layout>
          <system-margins>
            <left-margin>0.00</left-margin>
            <right-margin>0.00</right-margin>
            </system-margins>
          <system-distance>87.53</system-distance>
          </system-layout>
        </print>
      <note default-x="58.59" default-y="-25.00" dynamics="111.11">
        <pitch>
          <step>A</step>
          <octave>4</octave>
          </pitch>
        <duration>8</duration>
        <voice>1</voice>
        <type>whole</type>
        <lyric number="1" default-x="5.54" default-y="-40.00" relative-y="-30.00">
          <syllabic>single</syllabic>
          <text>わ</text>
          </lyric>
        </note>
      </measure>
    <measure number="28" width="556.35">
      <note>
        <rest/>
        <duration>4</duration>
        <voice>1</voice>
        <type>half</type>
        </note>
      <note>
        <rest/>
        <duration>2</duration>
        <voice>1</voice>
        <type>quarter</type>
        <notations>
          <articulations>
            <breath-mark/>
            </articulations>
          </notations>
        </note>
      <note default-x="374.38" default-y="-25.00" dynamics="111.11">
        <pitch>
          <step>A</step>
          <octave>4</octave>
          </pitch>
        <duration>1</duration>
        <voice>1</voice>
        <type>eighth</type>
        <stem>up</stem>
        <beam number="1">begin</beam>
        <lyric number="1" default-x="6.50" default-y="-40.00" relative-y="-30.00">
          <syllabic>single</syllabic>
          <text>あ</text>
          </lyric>
        </note>
      <note default-x="464.47" default-y="-20.00" dynamics="111.11">
        <pitch>
          <step>B</step>
          <octave>4</octave>
          </pitch>
        <duration>1</duration>
        <voice>1</voice>
        <type>eighth</type>
        <stem>up</stem>
        <beam number="1">end</beam>
        <lyric number="1" default-x="6.50" default-y="-40.00" relative-y="-30.00">
          <syllabic>single</syllabic>
          <text>と</text>
          </lyric>
        </note>
      </measure>
    <measure number="29" width="538.22">
      <print new-system="yes">
        <system-layout>
          <system-margins>
            <left-margin>0.00</left-margin>
            <right-margin>0.00</right-margin>
            </system-margins>
          <system-distance>87.53</system-distance>
          </system-layout>
        </print>
      <note default-x="58.59" default-y="-15.00" dynamics="111.11">
        <pitch>
          <step>C</step>
          <octave>5</octave>
          </pitch>
        <duration>4</duration>
        <voice>1</voice>
        <type>half</type>
        <stem>down</stem>
        <lyric number="1" default-x="6.50" default-y="-47.93" relative-y="-30.00">
          <syllabic>single</syllabic>
          <text>ろ</text>
          </lyric>
        </note>
      <note default-x="297.50" default-y="-15.00" dynamics="111.11">
        <pitch>
          <step>C</step>
          <octave>5</octave>
          </pitch>
        <duration>4</duration>
        <voice>1</voice>
        <type>half</type>
        <stem>down</stem>
        <lyric number="1" default-x="6.50" default-y="-47.93" relative-y="-30.00">
          <syllabic>single</syllabic>
          <text>お</text>
          </lyric>
        </note>
      </measure>
    <measure number="30" width="547.50">
      <note default-x="22.47" default-y="-10.00" dynamics="111.11">
        <pitch>
          <step>D</step>
          <octave>5</octave>
          </pitch>
        <duration>2</duration>
        <voice>1</voice>
        <type>quarter</type>
        <stem>down</stem>
        <lyric number="1" default-x="6.50" default-y="-47.93" relative-y="-30.00">
          <syllabic>single</syllabic>
          <text>ぴゃ</text>
          </lyric>
        </note>
      <note default-x="153.28" default-y="-20.00" dynamics="111.11">
        <pitch>
          <step>B</step>
          <octave>4</octave>
          </pitch>
        <duration>2</duration>
        <voice>1</voice>
        <type>quarter</type>
        <stem>down</stem>
        <lyric number="1" default-x="6.50" default-y="-47.93" relative-y="-30.00">
          <syllabic>single</syllabic>
          <text>く</text>
          </lyric>
        </note>
      <note default-x="284.08" default-y="-20.00" dynamics="111.11">
        <pitch>
          <step>B</step>
          <octave>4</octave>
          </pitch>
        <duration>2</duration>
        <voice>1</voice>
        <type>quarter</type>
        <stem>down</stem>
        <lyric number="1" default-x="6.50" default-y="-47.93" relative-y="-30.00">
          <syllabic>single</syllabic>
          <text>じ</text>
          </lyric>
        </note>
      <note default-x="414.89" default-y="-20.00" dynamics="111.11">
        <pitch>
          <step>B</step>
          <octave>4</octave>
          </pitch>
        <duration>2</duration>
        <voice>1</voice>
        <type>quarter</type>
        <stem>down</stem>
        <lyric number="1" default-x="6.50" default-y="-47.93" relative-y="-30.00">
          <syllabic>single</syllabic>
          <text>か</text>
          </lyric>
        </note>
      </measure>
    <measure number="31" width="564.10">
      <print new-system="yes">
        <system-layout>
          <system-margins>
            <left-margin>0.00</left-margin>
            <right-margin>0.00</right-margin>
            </system-margins>
          <system-distance>87.53</system-distance>
          </system-layout>
        </print>
      <note default-x="58.59" default-y="-25.00" dynamics="111.11">
        <pitch>
          <step>A</step>
          <octave>4</octave>
          </pitch>
        <duration>8</duration>
        <voice>1</voice>
        <type>whole</type>
        <lyric number="1" default-x="5.54" default-y="-40.00" relative-y="-30.00">
          <syllabic>single</syllabic>
          <text>ん</text>
          </lyric>
        </note>
      </measure>
    <measure number="32" width="521.61">
      <note>
        <rest measure="yes"/>
        <duration>8</duration>
        <voice>1</voice>
        </note>
      </measure>
    <measure number="33" width="562.05">
      <print new-system="yes">
        <system-layout>
          <system-margins>
            <left-margin>0.00</left-margin>
            <right-margin>0.00</right-margin>
            </system-margins>
          <system-distance>87.53</system-distance>
          </system-layout>
        </print>
      <note>
        <rest measure="yes"/>
        <duration>8</duration>
        <voice>1</voice>
        </note>
      </measure>
    <measure number="34" width="523.66">
      <note>
        <rest measure="yes"/>
        <duration>8</duration>
        <voice>1</voice>
        </note>
      </measure>
    <measure number="35" width="553.96">
      <print new-system="yes">
        <system-layout>
          <system-margins>
            <left-margin>0.00</left-margin>
            <right-margin>0.00</right-margin>
            </system-margins>
          <system-distance>87.53</system-distance>
          </system-layout>
        </print>
      <note>
        <rest/>
        <duration>2</duration>
        <voice>1</voice>
        <type>quarter</type>
        <notations>
          <articulations>
            <breath-mark/>
            </articulations>
          </notations>
        </note>
      <note default-x="191.74" default-y="-45.00" dynamics="111.11">
        <pitch>
          <step>D</step>
          <octave>4</octave>
          </pitch>
        <duration>2</duration>
        <voice>1</voice>
        <type>quarter</type>
        <stem>up</stem>
        <lyric number="1" default-x="6.50" default-y="-49.91" relative-y="-30.00">
          <syllabic>single</syllabic>
          <text>こ</text>
          </lyric>
        </note>
      <note default-x="311.88" default-y="-40.00" dynamics="111.11">
        <pitch>
          <step>E</step>
          <octave>4</octave>
          </pitch>
        <duration>2</duration>
        <voice>1</voice>
        <type>quarter</type>
        <stem>up</stem>
        <lyric number="1" default-x="6.50" default-y="-49.91" relative-y="-30.00">
          <syllabic>single</syllabic>
          <text>た</text>
          </lyric>
        </note>
      <note default-x="432.02" default-y="-35.00" dynamics="111.11">
        <pitch>
          <step>F</step>
          <octave>4</octave>
          </pitch>
        <duration>2</duration>
        <voice>1</voice>
        <type>quarter</type>
        <stem>up</stem>
        <lyric number="1" default-x="6.50" default-y="-49.91" relative-y="-30.00">
          <syllabic>single</syllabic>
          <text>え</text>
          </lyric>
        </note>
      </measure>
    <measure number="36" width="531.75">
      <note default-x="14.81" default-y="-30.00" dynamics="111.11">
        <pitch>
          <step>G</step>
          <octave>4</octave>
          </pitch>
        <duration>2</duration>
        <voice>1</voice>
        <type>quarter</type>
        <stem>up</stem>
        <lyric number="1" default-x="6.50" default-y="-49.91" relative-y="-30.00">
          <syllabic>single</syllabic>
          <text>て</text>
          </lyric>
        </note>
      <note default-x="143.59" default-y="-35.00" dynamics="111.11">
        <pitch>
          <step>F</step>
          <octave>4</octave>
          </pitch>
        <duration>2</duration>
        <voice>1</voice>
        <type>quarter</type>
        <stem>up</stem>
        <lyric number="1" default-x="6.50" default-y="-49.91" relative-y="-30.00">
          <syllabic>single</syllabic>
          <text>しゅ</text>
          </lyric>
        </note>
      <note default-x="272.38" default-y="-40.00" dynamics="111.11">
        <pitch>
          <step>E</step>
          <octave>4</octave>
          </pitch>
        <duration>2</duration>
        <voice>1</voice>
        <type>quarter</type>
        <stem>up</stem>
        <lyric number="1" default-x="6.50" default-y="-49.91" relative-y="-30.00">
          <syllabic>single</syllabic>
          <text>ゔぁ</text>
          </lyric>
        </note>
      <note default-x="401.17" default-y="-50.00" dynamics="111.11">
        <pitch>
          <step>C</step>
          <octave>4</octave>
          </pitch>
        <duration>2</duration>
        <voice>1</voice>
        <type>quarter</type>
        <stem>up</stem>
        <lyric number="1" default-x="6.50" default-y="-49.91" relative-y="-30.00">
          <syllabic>single</syllabic>
          <text>い</text>
          </lyric>
        </note>
      </measure>
    <measure number="37" width="567.49">
      <print new-system="yes">
        <system-layout>
          <system-margins>
            <left-margin>0.00</left-margin>
            <right-margin>0.00</right-margin>
            </system-margins>
          <system-distance>87.53</system-distance>
          </system-layout>
        </print>
      <note default-x="58.59" default-y="-45.00" dynamics="111.11">
        <pitch>
          <step>D</step>
          <octave>4</octave>
          </pitch>
        <duration>8</duration>
        <voice>1</voice>
        <type>whole</type>
        <lyric number="1" default-x="5.54" default-y="-43.70" relative-y="-30.00">
          <syllabic>single</syllabic>
          <text>つぁ</text>
          </lyric>
        </note>
      </measure>
    <measure number="38" width="518.23">
      <note>
        <rest measure="yes"/>
        <duration>8</duration>
        <voice>1</voice>
        </note>
      </measure>
    <measure number="39" width="574.63">
      <print new-system="yes">
        <system-layout>
          <system-margins>
            <left-margin>0.00</left-margin>
            <right-margin>0.00</right-margin>
            </system-margins>
          <system-distance>87.53</system-distance>
          </system-layout>
        </print>
      <note>
        <rest/>
        <duration>2</duration>
        <voice>1</voice>
        <type>quarter</type>
        <notations>
          <articulations>
            <breath-mark/>
            </articulations>
          </notations>
        </note>
      <note default-x="196.90" default-y="-45.00" dynamics="111.11">
        <pitch>
          <step>D</step>
          <octave>4</octave>
          </pitch>
        <duration>2</duration>
        <voice>1</voice>
        <type>quarter</type>
        <stem>up</stem>
        <lyric number="1" default-x="6.50" default-y="-46.93" relative-y="-30.00">
          <syllabic>single</syllabic>
          <text>きゃ</text>
          </lyric>
        </note>
      <note default-x="322.21" default-y="-40.00" dynamics="111.11">
        <pitch>
          <step>E</step>
          <octave>4</octave>
          </pitch>
        <duration>2</duration>
        <voice>1</voice>
        <type>quarter</type>
        <stem>up</stem>
        <lyric number="1" default-x="6.50" default-y="-46.93" relative-y="-30.00">
          <syllabic>single</syllabic>
          <text>しゃ</text>
          </lyric>
        </note>
      <note default-x="447.52" default-y="-35.00" dynamics="111.11">
        <pitch>
          <step>F</step>
          <octave>4</octave>
          </pitch>
        <duration>2</duration>
        <voice>1</voice>
        <type>quarter</type>
        <stem>up</stem>
        <lyric number="1" default-x="6.50" default-y="-46.93" relative-y="-30.00">
          <syllabic>single</syllabic>
          <text>な</text>
          </lyric>
        </note>
      </measure>
    <measure number="40" width="511.09">
      <note default-x="15.41" default-y="-30.00" dynamics="111.11">
        <pitch>
          <step>G</step>
          <octave>4</octave>
          </pitch>
        <duration>2</duration>
        <voice>1</voice>
        <type>quarter</type>
        <stem>up</stem>
        <lyric number="1" default-x="6.50" default-y="-46.93" relative-y="-30.00">
          <syllabic>single</syllabic>
          <text>か</text>
          </lyric>
        </note>
      <note default-x="138.88" default-y="-35.00" dynamics="111.11">
        <pitch>
          <step>F</step>
          <octave>4</octave>
          </pitch>
        <duration>2</duration>
        <voice>1</voice>
        <type>quarter</type>
        <stem>up</stem>
        <lyric number="1" default-x="6.50" default-y="-46.93" relative-y="-30.00">
          <syllabic>single</syllabic>
          <text>ら</text>
          </lyric>
        </note>
      <note default-x="262.35" default-y="-30.00" dynamics="111.11">
        <pitch>
          <step>G</step>
          <octave>4</octave>
          </pitch>
        <duration>2</duration>
        <voice>1</voice>
        <type>quarter</type>
        <stem>up</stem>
        <lyric number="1" default-x="6.50" default-y="-46.93" relative-y="-30.00">
          <syllabic>single</syllabic>
          <text>だ</text>
          </lyric>
        </note>
      <note default-x="385.82" default-y="-20.00" dynamics="111.11">
        <pitch>
          <step>B</step>
          <alter>-1</alter>
          <octave>4</octave>
          </pitch>
        <duration>2</duration>
        <voice>1</voice>
        <type>quarter</type>
        <accidental>flat</accidental>
        <stem>down</stem>
        <lyric number="1" default-x="6.50" default-y="-46.93" relative-y="-30.00">
          <syllabic>single</syllabic>
          <text>で</text>
          </lyric>
        </note>
      </measure>
    <measure number="41" width="563.69">
      <print new-system="yes">
        <system-layout>
          <system-margins>
            <left-margin>0.00</left-margin>
            <right-margin>0.00</right-margin>
            </system-margins>
          <system-distance>87.53</system-distance>
          </system-layout>
        </print>
      <note default-x="58.59" default-y="-25.00" dynamics="111.11">
        <pitch>
          <step>A</step>
          <octave>4</octave>
          </pitch>
        <duration>8</duration>
        <voice>1</voice>
        <type>whole</type>
        <lyric number="1" default-x="5.54" default-y="-40.00" relative-y="-30.00">
          <syllabic>single</syllabic>
          <text>も</text>
          </lyric>
        </note>
      </measure>
    <measure number="42" width="522.03">
      <note>
        <rest measure="yes"/>
        <duration>8</duration>
        <voice>1</voice>
        </note>
      </measure>
    <measure number="43" width="563.78">
      <print new-system="yes">
        <system-layout>
          <system-margins>
            <left-margin>0.00</left-margin>
            <right-margin>0.00</right-margin>
            </system-margins>
          <system-distance>87.53</system-distance>
          </system-layout>
        </print>
      <note>
        <rest/>
        <duration>2</duration>
        <voice>1</voice>
        <type>quarter</type>
        <notations>
          <articulations>
            <breath-mark/>
            </articulations>
          </notations>
        </note>
      <note default-x="194.19" default-y="-45.00" dynamics="111.11">
        <pitch>
          <step>D</step>
          <octave>4</octave>
          </pitch>
        <duration>2</duration>
        <voice>1</voice>
        <type>quarter</type>
        <stem>up</stem>
        <lyric number="1" default-x="6.50" default-y="-51.53" relative-y="-30.00">
          <syllabic>single</syllabic>
          <text>しぇ</text>
          </lyric>
        </note>
      <note default-x="316.79" default-y="-40.00" dynamics="111.11">
        <pitch>
          <step>E</step>
          <octave>4</octave>
          </pitch>
        <duration>2</duration>
        <voice>1</voice>
        <type>quarter</type>
        <stem>up</stem>
        <lyric number="1" default-x="6.50" default-y="-51.53" relative-y="-30.00">
          <syllabic>single</syllabic>
          <text>り</text>
          </lyric>
        </note>
      <note default-x="439.38" default-y="-35.00" dynamics="111.11">
        <pitch>
          <step>F</step>
          <octave>4</octave>
          </pitch>
        <duration>2</duration>
        <voice>1</voice>
        <type>quarter</type>
        <stem>up</stem>
        <lyric number="1" default-x="6.50" default-y="-51.53" relative-y="-30.00">
          <syllabic>single</syllabic>
          <text>ー</text>
          </lyric>
        </note>
      </measure>
    <measure number="44" width="521.93">
      <note default-x="19.85" default-y="-30.00" dynamics="111.11">
        <pitch>
          <step>G</step>
          <octave>4</octave>
          </pitch>
        <duration>2</duration>
        <voice>1</voice>
        <type>quarter</type>
        <stem>up</stem>
        <lyric number="1" default-x="6.50" default-y="-51.53" relative-y="-30.00">
          <syllabic>single</syllabic>
          <text>しゅ</text>
          </lyric>
        </note>
      <note default-x="144.92" default-y="-35.00" dynamics="111.11">
        <pitch>
          <step>F</step>
          <octave>4</octave>
          </pitch>
        <duration>2</duration>
        <voice>1</voice>
        <type>quarter</type>
        <stem>up</stem>
        <lyric number="1" default-x="6.50" default-y="-51.53" relative-y="-30.00">
          <syllabic>single</syllabic>
          <text>ぶ</text>
          </lyric>
        </note>
      <note default-x="269.99" default-y="-40.00" dynamics="111.11">
        <pitch>
          <step>E</step>
          <octave>4</octave>
          </pitch>
        <duration>2</duration>
        <voice>1</voice>
        <type>quarter</type>
        <stem>up</stem>
        <lyric number="1" default-x="6.50" default-y="-51.53" relative-y="-30.00">
          <syllabic>single</syllabic>
          <text>ち</text>
          </lyric>
        </note>
      <note default-x="395.06" default-y="-50.00" dynamics="111.11">
        <pitch>
          <step>C</step>
          <octave>4</octave>
          </pitch>
        <duration>2</duration>
        <voice>1</voice>
        <type>quarter</type>
        <stem>up</stem>
        <lyric number="1" default-x="6.50" default-y="-51.53" relative-y="-30.00">
          <syllabic>single</syllabic>
          <text>ま</text>
          </lyric>
        </note>
      </measure>
    <measure number="45" width="563.86">
      <print new-system="yes">
        <system-layout>
          <system-margins>
            <left-margin>0.00</left-margin>
            <right-margin>0.00</right-margin>
            </system-margins>
          <system-distance>87.53</system-distance>
          </system-layout>
        </print>
      <note default-x="58.59" default-y="-45.00" dynamics="111.11">
        <pitch>
          <step>D</step>
          <octave>4</octave>
          </pitch>
        <duration>8</duration>
        <voice>1</voice>
        <type>whole</type>
        <lyric number="1" default-x="5.54" default-y="-46.12" relative-y="-30.00">
          <syllabic>single</syllabic>
          <text>け</text>
          </lyric>
        </note>
      </measure>
    <measure number="46" width="521.85">
      <note>
        <rest measure="yes"/>
        <duration>8</duration>
        <voice>1</voice>
        </note>
      </measure>
    <measure number="47" width="562.87">
      <print new-system="yes">
        <system-layout>
          <system-margins>
            <left-margin>0.00</left-margin>
            <right-margin>0.00</right-margin>
            </system-margins>
          <system-distance>87.53</system-distance>
          </system-layout>
        </print>
      <note>
        <rest/>
        <duration>2</duration>
        <voice>1</voice>
        <type>quarter</type>
        <notations>
          <articulations>
            <breath-mark/>
            </articulations>
          </notations>
        </note>
      <note default-x="198.52" default-y="-25.00" dynamics="111.11">
        <pitch>
          <step>A</step>
          <octave>4</octave>
          </pitch>
        <duration>2</duration>
        <voice>1</voice>
        <type>quarter</type>
        <stem>up</stem>
        <lyric number="1" default-x="6.50" default-y="-51.53" relative-y="-30.00">
          <syllabic>single</syllabic>
          <text>ま</text>
          </lyric>
        </note>
      <note default-x="319.37" default-y="-30.00" dynamics="111.11">
        <pitch>
          <step>G</step>
          <octave>4</octave>
          </pitch>
        <duration>2</duration>
        <voice>1</voice>
        <type>quarter</type>
        <stem>up</stem>
        <lyric number="1" default-x="6.50" default-y="-51.53" relative-y="-30.00">
          <syllabic>single</syllabic>
          <text>た</text>
          </lyric>
        </note>
      <note default-x="440.22" default-y="-35.00" dynamics="111.11">
        <pitch>
          <step>F</step>
          <octave>4</octave>
          </pitch>
        <duration>2</duration>
        <voice>1</voice>
        <type>quarter</type>
        <stem>up</stem>
        <lyric number="1" default-x="6.50" default-y="-51.53" relative-y="-30.00">
          <syllabic>single</syllabic>
          <text>た</text>
          </lyric>
        </note>
      </measure>
    <measure number="48" width="522.85">
      <note default-x="14.40" default-y="-30.00" dynamics="111.11">
        <pitch>
          <step>G</step>
          <octave>4</octave>
          </pitch>
        <duration>2</duration>
        <voice>1</voice>
        <type>quarter</type>
        <stem>up</stem>
        <lyric number="1" default-x="6.50" default-y="-51.53" relative-y="-30.00">
          <syllabic>single</syllabic>
          <text>ち</text>
          </lyric>
        </note>
      <note default-x="141.06" default-y="-35.00" dynamics="111.11">
        <pitch>
          <step>F</step>
          <octave>4</octave>
          </pitch>
        <duration>2</duration>
        <voice>1</voice>
        <type>quarter</type>
        <stem>up</stem>
        <lyric number="1" default-x="6.50" default-y="-51.53" relative-y="-30.00">
          <syllabic>single</syllabic>
          <text>あ</text>
          </lyric>
        </note>
      <note default-x="267.72" default-y="-40.00" dynamics="111.11">
        <pitch>
          <step>E</step>
          <octave>4</octave>
          </pitch>
        <duration>2</duration>
        <voice>1</voice>
        <type>quarter</type>
        <stem>up</stem>
        <lyric number="1" default-x="6.50" default-y="-51.53" relative-y="-30.00">
          <syllabic>single</syllabic>
          <text>が</text>
          </lyric>
        </note>
      <note default-x="394.38" default-y="-50.00" dynamics="111.11">
        <pitch>
          <step>C</step>
          <alter>1</alter>
          <octave>4</octave>
          </pitch>
        <duration>2</duration>
        <voice>1</voice>
        <type>quarter</type>
        <accidental>sharp</accidental>
        <stem>up</stem>
        <lyric number="1" default-x="6.50" default-y="-51.53" relative-y="-30.00">
          <syllabic>single</syllabic>
          <text>れ</text>
          </lyric>
        </note>
      </measure>
    <measure number="49" width="564.55">
      <print new-page="yes">
        <system-layout>
          <system-margins>
            <left-margin>0.00</left-margin>
            <right-margin>0.00</right-margin>
            </system-margins>
          <top-system-distance>70.00</top-system-distance>
          </system-layout>
        </print>
      <note default-x="58.59" default-y="-45.00" dynamics="111.11">
        <pitch>
          <step>D</step>
          <octave>4</octave>
          </pitch>
        <duration>8</duration>
        <voice>1</voice>
        <type>whole</type>
        <lyric number="1" default-x="5.54" default-y="-45.72" relative-y="-30.00">
          <syllabic>single</syllabic>
          <text>る</text>
          </lyric>
        </note>
      </measure>
    <measure number="50" width="521.17">
      <note>
        <rest measure="yes"/>
        <duration>8</duration>
        <voice>1</voice>
        <notations>
          <articulations>
            <breath-mark/>
            </articulations>
          </notations>
        </note>
      </measure>
    <measure number="51" width="549.34">
      <print new-system="yes">
        <system-layout>
          <system-margins>
            <left-margin>0.00</left-margin>
            <right-margin>0.00</right-margin>
            </system-margins>
          <system-distance>87.53</system-distance>
          </system-layout>
        </print>
      <note default-x="58.59" default-y="-25.00" dynamics="111.11">
        <pitch>
          <step>A</step>
          <octave>4</octave>
          </pitch>
        <duration>8</duration>
        <tie type="start"/>
        <voice>1</voice>
        <type>whole</type>
        <notations>
          <tied type="start"/>
          </notations>
        <lyric number="1" default-x="5.54" default-y="-40.00" relative-y="-30.00">
          <syllabic>single</syllabic>
          <text>い</text>
          </lyric>
        </note>
      </measure>
    <measure number="52" width="536.37">
      <note default-x="13.00" default-y="-25.00" dynamics="111.11">
        <pitch>
          <step>A</step>
          <octave>4</octave>
          </pitch>
        <duration>2</duration>
        <tie type="stop"/>
        <voice>1</voice>
        <type>quarter</type>
        <stem>up</stem>
        <notations>
          <tied type="stop"/>
          </notations>
        </note>
      <note>
        <rest/>
        <duration>2</duration>
        <voice>1</voice>
        <type>quarter</type>
        </note>
      <note>
        <rest/>
        <duration>4</duration>
        <voice>1</voice>
        <type>half</type>
        </note>
      </measure>
    <measure number="53" width="559.55">
      <print new-system="yes">
        <system-layout>
          <system-margins>
            <left-margin>0.00</left-margin>
            <right-margin>0.00</right-margin>
            </system-margins>
          <system-distance>87.53</system-distance>
          </system-layout>
        </print>
      <note>
        <rest/>
        <duration>4</duration>
        <voice>1</voice>
        <type>half</type>
        </note>
      <note>
        <rest/>
        <duration>2</duration>
        <voice>1</voice>
        <type>quarter</type>
        <notations>
          <articulations>
            <breath-mark/>
            </articulations>
          </notations>
        </note>
      <note default-x="424.40" default-y="-25.00" dynamics="111.11">
        <pitch>
          <step>A</step>
          <octave>4</octave>
          </pitch>
        <duration>2</duration>
        <voice>1</voice>
        <type>quarter</type>
        <stem>up</stem>
        <lyric number="1" default-x="6.50" default-y="-41.53" relative-y="-30.00">
          <syllabic>single</syllabic>
          <text>ほ</text>
          </lyric>
        </note>
      </measure>
    <measure number="54" width="526.16">
      <note default-x="15.21" default-y="-30.00" dynamics="111.11">
        <pitch>
          <step>G</step>
          <octave>4</octave>
          </pitch>
        <duration>2</duration>
        <voice>1</voice>
        <type>quarter</type>
        <stem>up</stem>
        <lyric number="1" default-x="6.50" default-y="-41.53" relative-y="-30.00">
          <syllabic>single</syllabic>
          <text>お</text>
          </lyric>
        </note>
      <note default-x="142.50" default-y="-40.00" dynamics="111.11">
        <pitch>
          <step>E</step>
          <octave>4</octave>
          </pitch>
        <duration>2</duration>
        <voice>1</voice>
        <type>quarter</type>
        <stem>up</stem>
        <lyric number="1" default-x="6.50" default-y="-41.53" relative-y="-30.00">
          <syllabic>single</syllabic>
          <text>か</text>
          </lyric>
        </note>
      <note default-x="269.79" default-y="-40.00" dynamics="111.11">
        <pitch>
          <step>E</step>
          <octave>4</octave>
          </pitch>
        <duration>2</duration>
        <voice>1</voice>
        <type>quarter</type>
        <stem>up</stem>
        <lyric number="1" default-x="6.50" default-y="-41.53" relative-y="-30.00">
          <syllabic>single</syllabic>
          <text>い</text>
          </lyric>
        </note>
      <note default-x="397.07" default-y="-30.00" dynamics="111.11">
        <pitch>
          <step>G</step>
          <octave>4</octave>
          </pitch>
        <duration>2</duration>
        <voice>1</voice>
        <type>quarter</type>
        <stem>up</stem>
        <lyric number="1" default-x="6.50" default-y="-41.53" relative-y="-30.00">
          <syllabic>single</syllabic>
          <text>し</text>
          </lyric>
        </note>
      </measure>
    <measure number="55" width="536.66">
      <print new-system="yes">
        <system-layout>
          <system-margins>
            <left-margin>0.00</left-margin>
            <right-margin>0.00</right-margin>
            </system-margins>
          <system-distance>87.53</system-distance>
          </system-layout>
        </print>
      <note default-x="58.59" default-y="-25.00" dynamics="111.11">
        <pitch>
          <step>A</step>
          <octave>4</octave>
          </pitch>
        <duration>6</duration>
        <voice>1</voice>
        <type>half</type>
        <dot/>
        <stem>up</stem>
        <lyric number="1" default-x="6.50" default-y="-41.93" relative-y="-30.00">
          <syllabic>single</syllabic>
          <text>た</text>
          </lyric>
        </note>
      <note default-x="373.46" default-y="-25.00" dynamics="111.11">
        <pitch>
          <step>A</step>
          <octave>4</octave>
          </pitch>
        <duration>2</duration>
        <voice>1</voice>
        <type>quarter</type>
        <stem>up</stem>
        <lyric number="1" default-x="6.50" default-y="-41.93" relative-y="-30.00">
          <syllabic>single</syllabic>
          <text>さ</text>
          </lyric>
        </note>
      </measure>
    <measure number="56" width="549.06">
      <note default-x="15.61" default-y="-30.00" dynamics="111.11">
        <pitch>
          <step>G</step>
          <octave>4</octave>
          </pitch>
        <duration>2</duration>
        <voice>1</voice>
        <type>quarter</type>
        <stem>up</stem>
        <lyric number="1" default-x="6.50" default-y="-41.93" relative-y="-30.00">
          <syllabic>single</syllabic>
          <text>ん</text>
          </lyric>
        </note>
      <note default-x="148.52" default-y="-40.00" dynamics="111.11">
        <pitch>
          <step>E</step>
          <octave>4</octave>
          </pitch>
        <duration>2</duration>
        <voice>1</voice>
        <type>quarter</type>
        <stem>up</stem>
        <lyric number="1" default-x="6.50" default-y="-41.93" relative-y="-30.00">
          <syllabic>single</syllabic>
          <text>だ</text>
          </lyric>
        </note>
      <note default-x="281.44" default-y="-40.00" dynamics="111.11">
        <pitch>
          <step>E</step>
          <octave>4</octave>
          </pitch>
        <duration>2</duration>
        <voice>1</voice>
        <type>quarter</type>
        <stem>up</stem>
        <lyric number="1" default-x="6.50" default-y="-41.93" relative-y="-30.00">
          <syllabic>single</syllabic>
          <text>ん</text>
          </lyric>
        </note>
      <note default-x="414.35" default-y="-30.00" dynamics="111.11">
        <pitch>
          <step>G</step>
          <octave>4</octave>
          </pitch>
        <duration>2</duration>
        <voice>1</voice>
        <type>quarter</type>
        <stem>up</stem>
        <lyric number="1" default-x="6.50" default-y="-41.93" relative-y="-30.00">
          <syllabic>single</syllabic>
          <text>じゅ</text>
          </lyric>
        </note>
      </measure>
    <measure number="57" width="554.28">
      <print new-system="yes">
        <system-layout>
          <system-margins>
            <left-margin>0.00</left-margin>
            <right-margin>0.00</right-margin>
            </system-margins>
          <system-distance>87.53</system-distance>
          </system-layout>
        </print>
      <note default-x="58.59" default-y="-25.00" dynamics="111.11">
        <pitch>
          <step>A</step>
          <octave>4</octave>
          </pitch>
        <duration>6</duration>
        <voice>1</voice>
        <type>half</type>
        <dot/>
        <stem>up</stem>
        <notations>
          <articulations>
            <breath-mark/>
            </articulations>
          </notations>
        <lyric number="1" default-x="6.50" default-y="-41.53" relative-y="-30.00">
          <syllabic>single</syllabic>
          <text>う</text>
          </lyric>
        </note>
      <note default-x="391.58" default-y="-25.00" dynamics="111.11">
        <pitch>
          <step>A</step>
          <octave>4</octave>
          </pitch>
        <duration>2</duration>
        <voice>1</voice>
        <type>quarter</type>
        <stem>up</stem>
        <lyric number="1" default-x="6.50" default-y="-41.53" relative-y="-30.00">
          <syllabic>single</syllabic>
          <text>う</text>
          </lyric>
        </note>
      </measure>
    <measure number="58" width="531.43">
      <note default-x="14.40" default-y="-30.00" dynamics="111.11">
        <pitch>
          <step>G</step>
          <octave>4</octave>
          </pitch>
        <duration>2</duration>
        <voice>1</voice>
        <type>quarter</type>
        <stem>up</stem>
        <lyric number="1" default-x="6.50" default-y="-41.53" relative-y="-30.00">
          <syllabic>single</syllabic>
          <text>ち</text>
          </lyric>
        </note>
      <note default-x="143.21" default-y="-40.00" dynamics="111.11">
        <pitch>
          <step>E</step>
          <octave>4</octave>
          </pitch>
        <duration>2</duration>
        <voice>1</voice>
        <type>quarter</type>
        <stem>up</stem>
        <lyric number="1" default-x="6.50" default-y="-41.53" relative-y="-30.00">
          <syllabic>single</syllabic>
          <text>こ</text>
          </lyric>
        </note>
      <note default-x="272.02" default-y="-40.00" dynamics="111.11">
        <pitch>
          <step>E</step>
          <octave>4</octave>
          </pitch>
        <duration>2</duration>
        <voice>1</voice>
        <type>quarter</type>
        <stem>up</stem>
        <lyric number="1" default-x="6.50" default-y="-41.53" relative-y="-30.00">
          <syllabic>single</syllabic>
          <text>ん</text>
          </lyric>
        </note>
      <note default-x="400.83" default-y="-30.00" dynamics="111.11">
        <pitch>
          <step>G</step>
          <octave>4</octave>
          </pitch>
        <duration>2</duration>
        <voice>1</voice>
        <type>quarter</type>
        <stem>up</stem>
        <lyric number="1" default-x="6.50" default-y="-41.53" relative-y="-30.00">
          <syllabic>single</syllabic>
          <text>だ</text>
          </lyric>
        </note>
      </measure>
    <measure number="59" width="544.78">
      <print new-system="yes">
        <system-layout>
          <system-margins>
            <left-margin>0.00</left-margin>
            <right-margin>0.00</right-margin>
            </system-margins>
          <system-distance>87.53</system-distance>
          </system-layout>
        </print>
      <note default-x="58.59" default-y="-25.00" dynamics="111.11">
        <pitch>
          <step>A</step>
          <octave>4</octave>
          </pitch>
        <duration>2</duration>
        <voice>1</voice>
        <type>quarter</type>
        <stem>up</stem>
        <lyric number="1" default-x="6.50" default-y="-48.33" relative-y="-30.00">
          <syllabic>single</syllabic>
          <text>こ</text>
          </lyric>
        </note>
      <note default-x="179.69" default-y="-20.00" dynamics="111.11">
        <pitch>
          <step>B</step>
          <octave>4</octave>
          </pitch>
        <duration>2</duration>
        <voice>1</voice>
        <type>quarter</type>
        <stem>down</stem>
        <lyric number="1" default-x="6.50" default-y="-48.33" relative-y="-30.00">
          <syllabic>single</syllabic>
          <text>わ</text>
          </lyric>
        </note>
      <note default-x="300.79" default-y="-15.00" dynamics="111.11">
        <pitch>
          <step>C</step>
          <octave>5</octave>
          </pitch>
        <duration>2</duration>
        <voice>1</voice>
        <type>quarter</type>
        <stem>down</stem>
        <lyric number="1" default-x="6.50" default-y="-48.33" relative-y="-30.00">
          <syllabic>single</syllabic>
          <text>れ</text>
          </lyric>
        </note>
      <note default-x="421.88" default-y="-20.00" dynamics="111.11">
        <pitch>
          <step>B</step>
          <octave>4</octave>
          </pitch>
        <duration>2</duration>
        <voice>1</voice>
        <type>quarter</type>
        <stem>down</stem>
        <lyric number="1" default-x="6.50" default-y="-48.33" relative-y="-30.00">
          <syllabic>single</syllabic>
          <text>た</text>
          </lyric>
        </note>
      </measure>
    <measure number="60" width="540.93">
      <note default-x="15.21" default-y="-15.00" dynamics="111.11">
        <pitch>
          <step>C</step>
          <octave>5</octave>
          </pitch>
        <duration>1</duration>
        <voice>1</voice>
        <type>eighth</type>
        <stem>down</stem>
        <beam number="1">begin</beam>
        <lyric number="1" default-x="6.50" default-y="-48.33" relative-y="-30.00">
          <syllabic>single</syllabic>
          <text>ほ</text>
          </lyric>
        </note>
      <note default-x="85.05" default-y="-10.00" dynamics="111.11">
        <pitch>
          <step>D</step>
          <octave>5</octave>
          </pitch>
        <duration>1</duration>
        <voice>1</voice>
        <type>eighth</type>
        <stem>down</stem>
        <beam number="1">end</beam>
        <lyric number="1" default-x="6.50" default-y="-48.33" relative-y="-30.00">
          <syllabic>single</syllabic>
          <text>し</text>
          </lyric>
        </note>
      <note>
        <rest/>
        <duration>1</duration>
        <voice>1</voice>
        <type>eighth</type>
        </note>
      <note default-x="224.73" default-y="-25.00" dynamics="111.11">
        <pitch>
          <step>A</step>
          <octave>4</octave>
          </pitch>
        <duration>1</duration>
        <tie type="start"/>
        <voice>1</voice>
        <type>eighth</type>
        <stem>up</stem>
        <notations>
          <tied type="start"/>
          </notations>
        <lyric number="1" default-x="6.50" default-y="-48.33" relative-y="-30.00">
          <syllabic>single</syllabic>
          <text>が</text>
          </lyric>
        </note>
      <note default-x="294.57" default-y="-25.00" dynamics="111.11">
        <pitch>
          <step>A</step>
          <octave>4</octave>
          </pitch>
        <duration>2</duration>
        <tie type="stop"/>
        <voice>1</voice>
        <type>quarter</type>
        <stem>up</stem>
        <notations>
          <tied type="stop"/>
          </notations>
        </note>
      <note>
        <rest/>
        <duration>2</duration>
        <voice>1</voice>
        <type>quarter</type>
        <notations>
          <articulations>
            <breath-mark/>
            </articulations>
          </notations>
        </note>
      </measure>
    <measure number="61" width="546.62">
      <print new-system="yes">
        <system-layout>
          <system-margins>
            <left-margin>0.00</left-margin>
            <right-margin>0.00</right-margin>
            </system-margins>
          <system-distance>87.53</system-distance>
          </system-layout>
        </print>
      <note default-x="58.59" default-y="-25.00" dynamics="111.11">
        <pitch>
          <step>A</step>
          <octave>4</octave>
          </pitch>
        <duration>2</duration>
        <voice>1</voice>
        <type>quarter</type>
        <stem>up</stem>
        <lyric number="1" default-x="6.50" default-y="-48.33" relative-y="-30.00">
          <syllabic>single</syllabic>
          <text>は</text>
          </lyric>
        </note>
      <note default-x="180.15" default-y="-20.00" dynamics="111.11">
        <pitch>
          <step>B</step>
          <octave>4</octave>
          </pitch>
        <duration>2</duration>
        <voice>1</voice>
        <type>quarter</type>
        <stem>down</stem>
        <lyric number="1" default-x="6.50" default-y="-48.33" relative-y="-30.00">
          <syllabic>single</syllabic>
          <text>な</text>
          </lyric>
        </note>
      <note default-x="301.70" default-y="-15.00" dynamics="111.11">
        <pitch>
          <step>C</step>
          <octave>5</octave>
          </pitch>
        <duration>2</duration>
        <voice>1</voice>
        <type>quarter</type>
        <stem>down</stem>
        <lyric number="1" default-x="6.50" default-y="-48.33" relative-y="-30.00">
          <syllabic>single</syllabic>
          <text>うぉ</text>
          </lyric>
        </note>
      <note default-x="423.26" default-y="-20.00" dynamics="111.11">
        <pitch>
          <step>B</step>
          <octave>4</octave>
          </pitch>
        <duration>2</duration>
        <voice>1</voice>
        <type>quarter</type>
        <stem>down</stem>
        <lyric number="1" default-x="6.50" default-y="-48.33" relative-y="-30.00">
          <syllabic>single</syllabic>
          <text>さ</text>
          </lyric>
        </note>
      </measure>
    <measure number="62" width="539.10">
      <note default-x="15.41" default-y="-15.00" dynamics="111.11">
        <pitch>
          <step>C</step>
          <octave>5</octave>
          </pitch>
        <duration>1</duration>
        <voice>1</voice>
        <type>eighth</type>
        <stem>down</stem>
        <beam number="1">begin</beam>
        <lyric number="1" default-x="6.50" default-y="-48.33" relative-y="-30.00">
          <syllabic>single</syllabic>
          <text>か</text>
          </lyric>
        </note>
      <note default-x="84.97" default-y="-10.00" dynamics="111.11">
        <pitch>
          <step>D</step>
          <octave>5</octave>
          </pitch>
        <duration>1</duration>
        <voice>1</voice>
        <type>eighth</type>
        <stem>down</stem>
        <beam number="1">end</beam>
        <lyric number="1" default-x="6.50" default-y="-48.33" relative-y="-30.00">
          <syllabic>single</syllabic>
          <text>せ</text>
          </lyric>
        </note>
      <note>
        <rest/>
        <duration>1</duration>
        <voice>1</voice>
        <type>eighth</type>
        </note>
      <note default-x="224.08" default-y="-25.00" dynamics="111.11">
        <pitch>
          <step>A</step>
          <octave>4</octave>
          </pitch>
        <duration>1</duration>
        <tie type="start"/>
        <voice>1</voice>
        <type>eighth</type>
        <stem>up</stem>
        <notations>
          <tied type="start"/>
          </notations>
        <lyric number="1" default-x="6.50" default-y="-48.33" relative-y="-30.00">
          <syllabic>single</syllabic>
          <text>る</text>
          </lyric>
        </note>
      <note default-x="293.64" default-y="-25.00" dynamics="111.11">
        <pitch>
          <step>A</step>
          <octave>4</octave>
          </pitch>
        <duration>2</duration>
        <tie type="stop"/>
        <voice>1</voice>
        <type>quarter</type>
        <stem>up</stem>
        <notations>
          <tied type="stop"/>
          </notations>
        </note>
      <note>
        <rest/>
        <duration>2</duration>
        <voice>1</voice>
        <type>quarter</type>
        <notations>
          <articulations>
            <breath-mark/>
            </articulations>
          </notations>
        </note>
      </measure>
    <measure number="63" width="552.03">
      <print new-system="yes">
        <system-layout>
          <system-margins>
            <left-margin>0.00</left-margin>
            <right-margin>0.00</right-margin>
            </system-margins>
          <system-distance>87.53</system-distance>
          </system-layout>
        </print>
      <note default-x="58.59" default-y="-15.00" dynamics="111.11">
        <pitch>
          <step>C</step>
          <octave>5</octave>
          </pitch>
        <duration>4</duration>
        <voice>1</voice>
        <type>half</type>
        <stem>down</stem>
        <lyric number="1" default-x="6.50" default-y="-43.77" relative-y="-30.00">
          <syllabic>single</syllabic>
          <text>ふぉ</text>
          </lyric>
        </note>
      <note default-x="304.41" default-y="-15.00" dynamics="111.11">
        <pitch>
          <step>C</step>
          <octave>5</octave>
          </pitch>
        <duration>4</duration>
        <voice>1</voice>
        <type>half</type>
        <stem>down</stem>
        <lyric number="1" default-x="6.50" default-y="-43.77" relative-y="-30.00">
          <syllabic>single</syllabic>
          <text>ー</text>
          </lyric>
        </note>
      </measure>
    <measure number="64" width="533.68">
      <note default-x="13.00" default-y="-20.00" dynamics="111.11">
        <pitch>
          <step>B</step>
          <octave>4</octave>
          </pitch>
        <duration>2</duration>
        <voice>1</voice>
        <type>quarter</type>
        <stem>down</stem>
        <lyric number="1" default-x="6.50" default-y="-43.77" relative-y="-30.00">
          <syllabic>single</syllabic>
          <text>く</text>
          </lyric>
        </note>
      <note default-x="142.72" default-y="-30.00" dynamics="111.11">
        <pitch>
          <step>G</step>
          <octave>4</octave>
          </pitch>
        <duration>2</duration>
        <voice>1</voice>
        <type>quarter</type>
        <stem>up</stem>
        <lyric number="1" default-x="6.50" default-y="-43.77" relative-y="-30.00">
          <syllabic>single</syllabic>
          <text>で</text>
          </lyric>
        </note>
      <note default-x="272.44" default-y="-40.00" dynamics="111.11">
        <pitch>
          <step>E</step>
          <octave>4</octave>
          </pitch>
        <duration>2</duration>
        <voice>1</voice>
        <type>quarter</type>
        <stem>up</stem>
        <lyric number="1" default-x="6.50" default-y="-43.77" relative-y="-30.00">
          <syllabic>single</syllabic>
          <text>さ</text>
          </lyric>
        </note>
      <note default-x="402.16" default-y="-30.00" dynamics="111.11">
        <pitch>
          <step>G</step>
          <octave>4</octave>
          </pitch>
        <duration>2</duration>
        <voice>1</voice>
        <type>quarter</type>
        <stem>up</stem>
        <lyric number="1" default-x="6.50" default-y="-43.77" relative-y="-30.00">
          <syllabic>single</syllabic>
          <text>し</text>
          </lyric>
        </note>
      </measure>
    <measure number="65" width="528.40">
      <print new-system="yes">
        <system-layout>
          <system-margins>
            <left-margin>0.00</left-margin>
            <right-margin>0.00</right-margin>
            </system-margins>
          <system-distance>87.53</system-distance>
          </system-layout>
        </print>
      <note default-x="58.59" default-y="-25.00" dynamics="111.11">
        <pitch>
          <step>A</step>
          <octave>4</octave>
          </pitch>
        <duration>8</duration>
        <voice>1</voice>
        <type>whole</type>
        <lyric number="1" default-x="5.54" default-y="-40.00" relative-y="-30.00">
          <syllabic>single</syllabic>
          <text>た</text>
          </lyric>
        </note>
      </measure>
    <measure number="66" width="557.31">
      <note>
        <rest/>
        <duration>4</duration>
        <voice>1</voice>
        <type>half</type>
        </note>
      <note>
        <rest/>
        <duration>2</duration>
        <voice>1</voice>
        <type>quarter</type>
        <notations>
          <articulations>
            <breath-mark/>
            </articulations>
          </notations>
        </note>
      <note default-x="375.02" default-y="-25.00" dynamics="111.11">
        <pitch>
          <step>A</step>
          <octave>4</octave>
          </pitch>
        <duration>1</duration>
        <voice>1</voice>
        <type>eighth</type>
        <stem>up</stem>
        <beam number="1">begin</beam>
        <lyric number="1" default-x="6.50" default-y="-40.00" relative-y="-30.00">
          <syllabic>single</syllabic>
          <text>ま</text>
          </lyric>
        </note>
      <note default-x="465.27" default-y="-20.00" dynamics="111.11">
        <pitch>
          <step>B</step>
          <octave>4</octave>
          </pitch>
        <duration>1</duration>
        <voice>1</voice>
        <type>eighth</type>
        <stem>up</stem>
        <beam number="1">end</beam>
        <lyric number="1" default-x="6.50" default-y="-40.00" relative-y="-30.00">
          <syllabic>single</syllabic>
          <text>る</text>
          </lyric>
        </note>
      </measure>
    <measure number="67" width="535.80">
      <print new-system="yes">
        <system-layout>
          <system-margins>
            <left-margin>0.00</left-margin>
            <right-margin>0.00</right-margin>
            </system-margins>
          <system-distance>87.53</system-distance>
          </system-layout>
        </print>
      <note default-x="58.59" default-y="-15.00" dynamics="111.11">
        <pitch>
          <step>C</step>
          <octave>5</octave>
          </pitch>
        <duration>4</duration>
        <voice>1</voice>
        <type>half</type>
        <stem>down</stem>
        <lyric number="1" default-x="6.50" default-y="-48.33" relative-y="-30.00">
          <syllabic>single</syllabic>
          <text>で</text>
          </lyric>
        </note>
      <note default-x="296.30" default-y="-15.00" dynamics="111.11">
        <pitch>
          <step>C</step>
          <octave>5</octave>
          </pitch>
        <duration>4</duration>
        <voice>1</voice>
        <type>half</type>
        <stem>down</stem>
        <lyric number="1" default-x="6.50" default-y="-48.33" relative-y="-30.00">
          <syllabic>single</syllabic>
          <text>ちょ</text>
          </lyric>
        </note>
      </measure>
    <measure number="68" width="549.91">
      <note default-x="20.05" default-y="-10.00" dynamics="111.11">
        <pitch>
          <step>D</step>
          <octave>5</octave>
          </pitch>
        <duration>2</duration>
        <voice>1</voice>
        <type>quarter</type>
        <stem>down</stem>
        <lyric number="1" default-x="6.50" default-y="-48.33" relative-y="-30.00">
          <syllabic>single</syllabic>
          <text>うぉ</text>
          </lyric>
        </note>
      <note default-x="152.06" default-y="-20.00" dynamics="111.11">
        <pitch>
          <step>B</step>
          <octave>4</octave>
          </pitch>
        <duration>2</duration>
        <voice>1</voice>
        <type>quarter</type>
        <stem>down</stem>
        <lyric number="1" default-x="6.50" default-y="-48.33" relative-y="-30.00">
          <syllabic>single</syllabic>
          <text>ちょ</text>
          </lyric>
        </note>
      <note default-x="284.08" default-y="-20.00" dynamics="111.11">
        <pitch>
          <step>B</step>
          <octave>4</octave>
          </pitch>
        <duration>2</duration>
        <voice>1</voice>
        <type>quarter</type>
        <stem>down</stem>
        <lyric number="1" default-x="6.50" default-y="-48.33" relative-y="-30.00">
          <syllabic>single</syllabic>
          <text>み</text>
          </lyric>
        </note>
      <note default-x="416.09" default-y="-20.00" dynamics="111.11">
        <pitch>
          <step>B</step>
          <octave>4</octave>
          </pitch>
        <duration>2</duration>
        <voice>1</voice>
        <type>quarter</type>
        <stem>down</stem>
        <lyric number="1" default-x="6.50" default-y="-48.33" relative-y="-30.00">
          <syllabic>single</syllabic>
          <text>た</text>
          </lyric>
        </note>
      </measure>
    <measure number="69" width="563.55">
      <print new-system="yes">
        <system-layout>
          <system-margins>
            <left-margin>0.00</left-margin>
            <right-margin>0.00</right-margin>
            </system-margins>
          <system-distance>87.53</system-distance>
          </system-layout>
        </print>
      <note default-x="58.59" default-y="-25.00" dynamics="111.11">
        <pitch>
          <step>A</step>
          <octave>4</octave>
          </pitch>
        <duration>8</duration>
        <tie type="start"/>
        <voice>1</voice>
        <type>whole</type>
        <notations>
          <tied type="start"/>
          </notations>
        <lyric number="1" default-x="5.54" default-y="-40.00" relative-y="-30.00">
          <syllabic>single</syllabic>
          <text>い</text>
          </lyric>
        </note>
      </measure>
    <measure number="70" width="522.17">
      <note default-x="13.00" default-y="-25.00" dynamics="111.11">
        <pitch>
          <step>A</step>
          <octave>4</octave>
          </pitch>
        <duration>8</duration>
        <tie type="stop"/>
        <voice>1</voice>
        <type>whole</type>
        <notations>
          <tied type="stop"/>
          </notations>
        </note>
      </measure>
    <measure number="71" width="169.61">
      <print new-system="yes">
        <system-layout>
          <system-margins>
            <left-margin>0.00</left-margin>
            <right-margin>783.24</right-margin>
            </system-margins>
          <system-distance>87.53</system-distance>
          </system-layout>
        </print>
      <note>
        <rest measure="yes"/>
        <duration>8</duration>
        <voice>1</voice>
        </note>
      </measure>
    <measure number="72" width="132.86">
      <note>
        <rest measure="yes"/>
        <duration>8</duration>
        <voice>1</voice>
        </note>
      <barline location="right">
        <bar-style>light-heavy</bar-style>
        </barline>
      </measure>
    </part>
  </score-partwise>
