<?xml version="1.0" encoding="UTF-8"?>
<!DOCTYPE score-partwise PUBLIC "-//Recordare//DTD MusicXML 3.1 Partwise//EN" "http://www.musicxml.org/dtds/partwise.dtd">
<score-partwise version="3.1">
  <identification>
    <encoding>
      <software>MuseScore 3.6.2</software>
      <encoding-date>2021-10-25</encoding-date>
      <supports element="accidental" type="yes"/>
      <supports element="beam" type="yes"/>
      <supports element="print" attribute="new-page" type="yes" value="yes"/>
      <supports element="print" attribute="new-system" type="yes" value="yes"/>
      <supports element="stem" type="yes"/>
      </encoding>
    </identification>
  <defaults>
    <scaling>
      <millimeters>7</millimeters>
      <tenths>40</tenths>
      </scaling>
    <page-layout>
      <page-height>1697.14</page-height>
      <page-width>1200</page-width>
      <page-margins type="both">
        <left-margin>57.1429</left-margin>
        <right-margin>57.1429</right-margin>
        <top-margin>57.1429</top-margin>
        <bottom-margin>57.1429</bottom-margin>
        </page-margins>
      </page-layout>
    <word-font font-family="Edwin" font-size="10"/>
    <lyric-font font-family="Edwin" font-size="10"/>
    </defaults>
  <part-list>
    <score-part id="P1">
      <part-name>ピアノ, Melody</part-name>
      <part-abbreviation>Pno.</part-abbreviation>
      <score-instrument id="P1-I1">
        <instrument-name>ピアノ</instrument-name>
        </score-instrument>
      <midi-device id="P1-I1" port="1"></midi-device>
      <midi-instrument id="P1-I1">
        <midi-channel>1</midi-channel>
        <midi-program>1</midi-program>
        <volume>78.7402</volume>
        <pan>0</pan>
        </midi-instrument>
      </score-part>
    </part-list>
  <part id="P1">
    <measure number="1" width="515.28">
      <print>
        <system-layout>
          <system-margins>
            <left-margin>50.00</left-margin>
            <right-margin>0.00</right-margin>
            </system-margins>
          <top-system-distance>170.00</top-system-distance>
          </system-layout>
        </print>
      <attributes>
        <divisions>4</divisions>
        <key>
          <fifths>-1</fifths>
          </key>
        <time>
          <beats>4</beats>
          <beat-type>4</beat-type>
          </time>
        <clef>
          <sign>G</sign>
          <line>2</line>
          </clef>
        </attributes>
      <direction placement="above">
        <direction-type>
          <metronome parentheses="no" default-x="-30.68" relative-y="20.00">
            <beat-unit>quarter</beat-unit>
            <per-minute>87</per-minute>
            </metronome>
          </direction-type>
        <sound tempo="87"/>
        </direction>
      <note>
        <rest measure="yes"/>
        <duration>16</duration>
        <voice>1</voice>
        <notations>
          <articulations>
            <breath-mark/>
            </articulations>
          </notations>
        </note>
      </measure>
    <measure number="2" width="520.43">
      <note default-x="15.41" default-y="-35.00" dynamics="111.11">
        <pitch>
          <step>F</step>
          <octave>4</octave>
          </pitch>
        <duration>6</duration>
        <voice>1</voice>
        <type>quarter</type>
        <dot/>
        <stem>up</stem>
        <lyric number="1" default-x="6.50" default-y="-58.23" relative-y="-30.00">
          <syllabic>single</syllabic>
          <text>か</text>
          </lyric>
        </note>
      <note default-x="182.73" default-y="-50.00" dynamics="111.11">
        <pitch>
          <step>C</step>
          <octave>4</octave>
          </pitch>
        <duration>1</duration>
        <voice>1</voice>
        <type>16th</type>
        <stem>up</stem>
        <beam number="1">begin</beam>
        <beam number="2">begin</beam>
        <lyric number="1" default-x="6.50" default-y="-58.23" relative-y="-30.00">
          <syllabic>single</syllabic>
          <text>こ</text>
          </lyric>
        </note>
      <note default-x="248.32" default-y="-50.00" dynamics="111.11">
        <pitch>
          <step>C</step>
          <octave>4</octave>
          </pitch>
        <duration>1</duration>
        <tie type="start"/>
        <voice>1</voice>
        <type>16th</type>
        <stem>up</stem>
        <beam number="1">end</beam>
        <beam number="2">end</beam>
        <notations>
          <tied type="start"/>
          </notations>
        <lyric number="1" default-x="6.50" default-y="-58.23" relative-y="-30.00">
          <syllabic>single</syllabic>
          <text>わ</text>
          </lyric>
        </note>
      <note default-x="313.91" default-y="-50.00" dynamics="111.11">
        <pitch>
          <step>C</step>
          <octave>4</octave>
          </pitch>
        <duration>8</duration>
        <tie type="stop"/>
        <voice>1</voice>
        <type>half</type>
        <stem>up</stem>
        <notations>
          <tied type="stop"/>
          <articulations>
            <breath-mark/>
            </articulations>
          </notations>
        </note>
      </measure>
    <measure number="3" width="575.16">
      <print new-system="yes">
        <system-layout>
          <system-margins>
            <left-margin>0.00</left-margin>
            <right-margin>0.00</right-margin>
            </system-margins>
          <system-distance>103.36</system-distance>
          </system-layout>
        </print>
      <note default-x="80.21" default-y="-55.00" dynamics="111.11">
        <pitch>
          <step>B</step>
          <alter>-1</alter>
          <octave>3</octave>
          </pitch>
        <duration>6</duration>
        <voice>1</voice>
        <type>quarter</type>
        <dot/>
        <stem>up</stem>
        <lyric number="1" default-x="6.50" default-y="-61.53" relative-y="-30.00">
          <syllabic>single</syllabic>
          <text>ち</text>
          </lyric>
        </note>
      <note default-x="244.03" default-y="-60.00" dynamics="111.11">
        <pitch>
          <step>A</step>
          <octave>3</octave>
          </pitch>
        <duration>1</duration>
        <voice>1</voice>
        <type>16th</type>
        <stem>up</stem>
        <beam number="1">begin</beam>
        <beam number="2">begin</beam>
        <lyric number="1" default-x="6.50" default-y="-61.53" relative-y="-30.00">
          <syllabic>single</syllabic>
          <text>か</text>
          </lyric>
        </note>
      <note default-x="308.25" default-y="-50.00" dynamics="111.11">
        <pitch>
          <step>C</step>
          <octave>4</octave>
          </pitch>
        <duration>1</duration>
        <tie type="start"/>
        <voice>1</voice>
        <type>16th</type>
        <stem>up</stem>
        <beam number="1">end</beam>
        <beam number="2">end</beam>
        <notations>
          <tied type="start"/>
          </notations>
        <lyric number="1" default-x="6.50" default-y="-61.53" relative-y="-30.00">
          <syllabic>single</syllabic>
          <text>く</text>
          </lyric>
        </note>
      <note default-x="372.47" default-y="-50.00" dynamics="111.11">
        <pitch>
          <step>C</step>
          <octave>4</octave>
          </pitch>
        <duration>8</duration>
        <tie type="stop"/>
        <voice>1</voice>
        <type>half</type>
        <stem>up</stem>
        <notations>
          <tied type="stop"/>
          <articulations>
            <breath-mark/>
            </articulations>
          </notations>
        </note>
      </measure>
    <measure number="4" width="510.56">
      <note default-x="15.61" default-y="-35.00" dynamics="111.11">
        <pitch>
          <step>F</step>
          <octave>4</octave>
          </pitch>
        <duration>6</duration>
        <voice>1</voice>
        <type>quarter</type>
        <dot/>
        <stem>up</stem>
        <lyric number="1" default-x="6.50" default-y="-61.53" relative-y="-30.00">
          <syllabic>single</syllabic>
          <text>み</text>
          </lyric>
        </note>
      <note default-x="179.43" default-y="-50.00" dynamics="111.11">
        <pitch>
          <step>C</step>
          <octave>4</octave>
          </pitch>
        <duration>1</duration>
        <voice>1</voice>
        <type>16th</type>
        <stem>up</stem>
        <beam number="1">begin</beam>
        <beam number="2">begin</beam>
        <lyric number="1" default-x="6.50" default-y="-61.53" relative-y="-30.00">
          <syllabic>single</syllabic>
          <text>ら</text>
          </lyric>
        </note>
      <note default-x="243.65" default-y="-50.00" dynamics="111.11">
        <pitch>
          <step>C</step>
          <octave>4</octave>
          </pitch>
        <duration>1</duration>
        <tie type="start"/>
        <voice>1</voice>
        <type>16th</type>
        <stem>up</stem>
        <beam number="1">end</beam>
        <beam number="2">end</beam>
        <notations>
          <tied type="start"/>
          </notations>
        <lyric number="1" default-x="6.50" default-y="-61.53" relative-y="-30.00">
          <syllabic>single</syllabic>
          <text>い</text>
          </lyric>
        </note>
      <note default-x="307.87" default-y="-50.00" dynamics="111.11">
        <pitch>
          <step>C</step>
          <octave>4</octave>
          </pitch>
        <duration>8</duration>
        <tie type="stop"/>
        <voice>1</voice>
        <type>half</type>
        <stem>up</stem>
        <notations>
          <tied type="stop"/>
          <articulations>
            <breath-mark/>
            </articulations>
          </notations>
        </note>
      </measure>
    <measure number="5" width="572.89">
      <print new-system="yes">
        <system-layout>
          <system-margins>
            <left-margin>0.00</left-margin>
            <right-margin>0.00</right-margin>
            </system-margins>
          <system-distance>103.36</system-distance>
          </system-layout>
        </print>
      <note default-x="80.21" default-y="-55.00" dynamics="111.11">
        <pitch>
          <step>B</step>
          <alter>-1</alter>
          <octave>3</octave>
          </pitch>
        <duration>6</duration>
        <voice>1</voice>
        <type>quarter</type>
        <dot/>
        <stem>up</stem>
        <lyric number="1" default-x="6.50" default-y="-66.58" relative-y="-30.00">
          <syllabic>single</syllabic>
          <text>と</text>
          </lyric>
        </note>
      <note default-x="243.25" default-y="-60.00" dynamics="111.11">
        <pitch>
          <step>A</step>
          <octave>3</octave>
          </pitch>
        <duration>1</duration>
        <voice>1</voice>
        <type>16th</type>
        <stem>up</stem>
        <beam number="1">begin</beam>
        <beam number="2">begin</beam>
        <lyric number="1" default-x="6.50" default-y="-66.58" relative-y="-30.00">
          <syllabic>single</syllabic>
          <text>うぉ</text>
          </lyric>
        </note>
      <note default-x="307.16" default-y="-60.00" dynamics="111.11">
        <pitch>
          <step>A</step>
          <octave>3</octave>
          </pitch>
        <duration>1</duration>
        <tie type="start"/>
        <voice>1</voice>
        <type>16th</type>
        <stem>up</stem>
        <beam number="1">end</beam>
        <beam number="2">end</beam>
        <notations>
          <tied type="start"/>
          </notations>
        <lyric number="1" default-x="6.50" default-y="-66.58" relative-y="-30.00">
          <syllabic>single</syllabic>
          <text>く</text>
          </lyric>
        </note>
      <note default-x="371.07" default-y="-60.00" dynamics="111.11">
        <pitch>
          <step>A</step>
          <octave>3</octave>
          </pitch>
        <duration>8</duration>
        <tie type="stop"/>
        <voice>1</voice>
        <type>half</type>
        <stem>up</stem>
        <notations>
          <tied type="stop"/>
          <articulations>
            <breath-mark/>
            </articulations>
          </notations>
        </note>
      </measure>
    <measure number="6" width="512.82">
      <note default-x="15.01" default-y="-35.00" dynamics="111.11">
        <pitch>
          <step>F</step>
          <octave>4</octave>
          </pitch>
        <duration>6</duration>
        <voice>1</voice>
        <type>quarter</type>
        <dot/>
        <stem>up</stem>
        <lyric number="1" default-x="6.50" default-y="-66.58" relative-y="-30.00">
          <syllabic>single</syllabic>
          <text>あ</text>
          </lyric>
        </note>
      <note default-x="179.82" default-y="-50.00" dynamics="111.11">
        <pitch>
          <step>C</step>
          <octave>4</octave>
          </pitch>
        <duration>1</duration>
        <voice>1</voice>
        <type>16th</type>
        <stem>up</stem>
        <beam number="1">begin</beam>
        <beam number="2">begin</beam>
        <lyric number="1" default-x="6.50" default-y="-66.58" relative-y="-30.00">
          <syllabic>single</syllabic>
          <text>す</text>
          </lyric>
        </note>
      <note default-x="244.43" default-y="-50.00" dynamics="111.11">
        <pitch>
          <step>C</step>
          <octave>4</octave>
          </pitch>
        <duration>1</duration>
        <tie type="start"/>
        <voice>1</voice>
        <type>16th</type>
        <stem>up</stem>
        <beam number="1">end</beam>
        <beam number="2">end</beam>
        <notations>
          <tied type="start"/>
          </notations>
        <lyric number="1" default-x="6.50" default-y="-66.58" relative-y="-30.00">
          <syllabic>single</syllabic>
          <text>ふぁ</text>
          </lyric>
        </note>
      <note default-x="309.04" default-y="-50.00" dynamics="111.11">
        <pitch>
          <step>C</step>
          <octave>4</octave>
          </pitch>
        <duration>8</duration>
        <tie type="stop"/>
        <voice>1</voice>
        <type>half</type>
        <stem>up</stem>
        <notations>
          <tied type="stop"/>
          <articulations>
            <breath-mark/>
            </articulations>
          </notations>
        </note>
      </measure>
    <measure number="7" width="577.07">
      <print new-system="yes">
        <system-layout>
          <system-margins>
            <left-margin>0.00</left-margin>
            <right-margin>0.00</right-margin>
            </system-margins>
          <system-distance>105.18</system-distance>
          </system-layout>
        </print>
      <note default-x="80.21" default-y="-55.00" dynamics="111.11">
        <pitch>
          <step>B</step>
          <alter>-1</alter>
          <octave>3</octave>
          </pitch>
        <duration>6</duration>
        <voice>1</voice>
        <type>quarter</type>
        <dot/>
        <stem>up</stem>
        <lyric number="1" default-x="6.50" default-y="-78.25" relative-y="-30.00">
          <syllabic>single</syllabic>
          <text>る</text>
          </lyric>
        </note>
      <note default-x="244.69" default-y="-60.00" dynamics="111.11">
        <pitch>
          <step>A</step>
          <octave>3</octave>
          </pitch>
        <duration>1</duration>
        <voice>1</voice>
        <type>16th</type>
        <stem>up</stem>
        <beam number="1">begin</beam>
        <beam number="2">begin</beam>
        <lyric number="1" default-x="6.50" default-y="-78.25" relative-y="-30.00">
          <syllabic>single</syllabic>
          <text>と</text>
          </lyric>
        </note>
      <note default-x="309.17" default-y="-50.00" dynamics="111.11">
        <pitch>
          <step>C</step>
          <octave>4</octave>
          </pitch>
        <duration>1</duration>
        <tie type="start"/>
        <voice>1</voice>
        <type>16th</type>
        <stem>up</stem>
        <beam number="1">end</beam>
        <beam number="2">end</beam>
        <notations>
          <tied type="start"/>
          </notations>
        <lyric number="1" default-x="6.50" default-y="-78.25" relative-y="-30.00">
          <syllabic>single</syllabic>
          <text>に</text>
          </lyric>
        </note>
      <note default-x="373.65" default-y="-50.00" dynamics="111.11">
        <pitch>
          <step>C</step>
          <octave>4</octave>
          </pitch>
        <duration>8</duration>
        <tie type="stop"/>
        <voice>1</voice>
        <type>half</type>
        <stem>up</stem>
        <notations>
          <tied type="stop"/>
          <articulations>
            <breath-mark/>
            </articulations>
          </notations>
        </note>
      </measure>
    <measure number="8" width="508.65">
      <note default-x="13.60" default-y="-35.00" dynamics="111.11">
        <pitch>
          <step>F</step>
          <octave>4</octave>
          </pitch>
        <duration>6</duration>
        <voice>1</voice>
        <type>quarter</type>
        <dot/>
        <stem>up</stem>
        <lyric number="1" default-x="6.50" default-y="-78.25" relative-y="-30.00">
          <syllabic>single</syllabic>
          <text>と</text>
          </lyric>
        </note>
      <note default-x="173.62" default-y="-50.00" dynamics="111.11">
        <pitch>
          <step>C</step>
          <octave>4</octave>
          </pitch>
        <duration>1</duration>
        <voice>1</voice>
        <type>16th</type>
        <stem>down</stem>
        <beam number="1">begin</beam>
        <beam number="2">begin</beam>
        <lyric number="1" default-x="6.50" default-y="-78.25" relative-y="-30.00">
          <syllabic>single</syllabic>
          <text>け</text>
          </lyric>
        </note>
      <attributes>
        <clef>
          <sign>F</sign>
          <line>4</line>
          </clef>
        </attributes>
      <note default-x="247.40" default-y="10.00" dynamics="111.11">
        <pitch>
          <step>C</step>
          <octave>4</octave>
          </pitch>
        <duration>1</duration>
        <tie type="start"/>
        <voice>1</voice>
        <type>16th</type>
        <stem>down</stem>
        <beam number="1">end</beam>
        <beam number="2">end</beam>
        <notations>
          <tied type="start"/>
          </notations>
        <lyric number="1" default-x="6.50" default-y="-78.25" relative-y="-30.00">
          <syllabic>single</syllabic>
          <text>た</text>
          </lyric>
        </note>
      <note default-x="310.13" default-y="10.00" dynamics="111.11">
        <pitch>
          <step>C</step>
          <octave>4</octave>
          </pitch>
        <duration>8</duration>
        <tie type="stop"/>
        <voice>1</voice>
        <type>half</type>
        <stem>down</stem>
        <notations>
          <tied type="stop"/>
          <articulations>
            <breath-mark/>
            </articulations>
          </notations>
        </note>
      </measure>
    <measure number="9" width="508.16">
      <print new-system="yes">
        <system-layout>
          <system-margins>
            <left-margin>0.00</left-margin>
            <right-margin>0.00</right-margin>
            </system-margins>
          <system-distance>110.23</system-distance>
          </system-layout>
        </print>
      <note default-x="77.68" default-y="5.00" dynamics="111.11">
        <pitch>
          <step>B</step>
          <alter>-1</alter>
          <octave>3</octave>
          </pitch>
        <duration>6</duration>
        <voice>1</voice>
        <type>quarter</type>
        <dot/>
        <stem>down</stem>
        <lyric number="1" default-x="6.50" default-y="-40.00" relative-y="-30.00">
          <syllabic>single</syllabic>
          <text>ひ</text>
          </lyric>
        </note>
      <note default-x="226.44" default-y="0.00" dynamics="111.11">
        <pitch>
          <step>A</step>
          <octave>3</octave>
          </pitch>
        <duration>1</duration>
        <voice>1</voice>
        <type>16th</type>
        <stem>down</stem>
        <beam number="1">begin</beam>
        <beam number="2">begin</beam>
        <lyric number="1" default-x="6.50" default-y="-40.00" relative-y="-30.00">
          <syllabic>single</syllabic>
          <text>ざ</text>
          </lyric>
        </note>
      <note default-x="284.76" default-y="0.00" dynamics="111.11">
        <pitch>
          <step>A</step>
          <octave>3</octave>
          </pitch>
        <duration>1</duration>
        <tie type="start"/>
        <voice>1</voice>
        <type>16th</type>
        <stem>down</stem>
        <beam number="1">end</beam>
        <beam number="2">end</beam>
        <notations>
          <tied type="start"/>
          </notations>
        <lyric number="1" default-x="6.50" default-y="-40.00" relative-y="-30.00">
          <syllabic>single</syllabic>
          <text>し</text>
          </lyric>
        </note>
      <note default-x="343.07" default-y="0.00" dynamics="111.11">
        <pitch>
          <step>A</step>
          <octave>3</octave>
          </pitch>
        <duration>8</duration>
        <tie type="stop"/>
        <voice>1</voice>
        <type>half</type>
        <stem>down</stem>
        <notations>
          <tied type="stop"/>
          </notations>
        </note>
      </measure>
    <measure number="10" width="577.55">
      <note>
        <rest/>
        <duration>4</duration>
        <voice>1</voice>
        <type>quarter</type>
        <notations>
          <articulations>
            <breath-mark/>
            </articulations>
          </notations>
        </note>
      <attributes>
        <clef>
          <sign>G</sign>
          <line>2</line>
          </clef>
        </attributes>
      <note default-x="146.54" default-y="-35.00" dynamics="111.11">
        <pitch>
          <step>F</step>
          <octave>4</octave>
          </pitch>
        <duration>2</duration>
        <voice>1</voice>
        <type>eighth</type>
        <stem>up</stem>
        <beam number="1">begin</beam>
        <lyric number="1" default-x="6.50" default-y="-40.00" relative-y="-30.00">
          <syllabic>single</syllabic>
          <text>ほ</text>
          </lyric>
        </note>
      <note default-x="218.07" default-y="-35.00" dynamics="111.11">
        <pitch>
          <step>F</step>
          <octave>4</octave>
          </pitch>
        <duration>2</duration>
        <voice>1</voice>
        <type>eighth</type>
        <stem>up</stem>
        <beam number="1">end</beam>
        <lyric number="1" default-x="6.50" default-y="-40.00" relative-y="-30.00">
          <syllabic>single</syllabic>
          <text>ど</text>
          </lyric>
        </note>
      <note>
        <rest/>
        <duration>2</duration>
        <voice>1</voice>
        <type>eighth</type>
        </note>
      <note default-x="361.15" default-y="-35.00" dynamics="111.11">
        <pitch>
          <step>F</step>
          <octave>4</octave>
          </pitch>
        <duration>2</duration>
        <voice>1</voice>
        <type>eighth</type>
        <stem>up</stem>
        <beam number="1">begin</beam>
        <lyric number="1" default-x="6.50" default-y="-40.00" relative-y="-30.00">
          <syllabic>single</syllabic>
          <text>うぉ</text>
          </lyric>
        </note>
      <note default-x="432.68" default-y="-35.00" dynamics="111.11">
        <pitch>
          <step>F</step>
          <octave>4</octave>
          </pitch>
        <duration>2</duration>
        <voice>1</voice>
        <type>eighth</type>
        <stem>up</stem>
        <beam number="1">continue</beam>
        <lyric number="1" default-x="6.50" default-y="-40.00" relative-y="-30.00">
          <syllabic>single</syllabic>
          <text>きょ</text>
          </lyric>
        </note>
      <note default-x="504.22" default-y="-35.00" dynamics="111.11">
        <pitch>
          <step>F</step>
          <octave>4</octave>
          </pitch>
        <duration>2</duration>
        <voice>1</voice>
        <type>eighth</type>
        <stem>up</stem>
        <beam number="1">end</beam>
        <lyric number="1" default-x="6.50" default-y="-40.00" relative-y="-30.00">
          <syllabic>single</syllabic>
          <text>うぉ</text>
          </lyric>
        </note>
      </measure>
    <measure number="11" width="574.71">
      <print new-system="yes">
        <system-layout>
          <system-margins>
            <left-margin>0.00</left-margin>
            <right-margin>0.00</right-margin>
            </system-margins>
          <system-distance>103.36</system-distance>
          </system-layout>
        </print>
      <note>
        <rest/>
        <duration>4</duration>
        <voice>1</voice>
        <type>quarter</type>
        <notations>
          <articulations>
            <breath-mark/>
            </articulations>
          </notations>
        </note>
      <note default-x="196.24" default-y="-35.00" dynamics="111.11">
        <pitch>
          <step>F</step>
          <octave>4</octave>
          </pitch>
        <duration>2</duration>
        <voice>1</voice>
        <type>eighth</type>
        <stem>up</stem>
        <beam number="1">begin</beam>
        <lyric number="1" default-x="6.50" default-y="-40.00" relative-y="-30.00">
          <syllabic>single</syllabic>
          <text>お</text>
          </lyric>
        </note>
      <note default-x="259.02" default-y="-35.00" dynamics="111.11">
        <pitch>
          <step>F</step>
          <octave>4</octave>
          </pitch>
        <duration>2</duration>
        <voice>1</voice>
        <type>eighth</type>
        <stem>up</stem>
        <beam number="1">end</beam>
        <lyric number="1" default-x="6.50" default-y="-40.00" relative-y="-30.00">
          <syllabic>single</syllabic>
          <text>ど</text>
          </lyric>
        </note>
      <note>
        <rest/>
        <duration>2</duration>
        <voice>1</voice>
        <type>eighth</type>
        </note>
      <note default-x="384.58" default-y="-30.00" dynamics="111.11">
        <pitch>
          <step>G</step>
          <octave>4</octave>
          </pitch>
        <duration>2</duration>
        <voice>1</voice>
        <type>eighth</type>
        <stem>up</stem>
        <beam number="1">begin</beam>
        <lyric number="1" default-x="6.50" default-y="-40.00" relative-y="-30.00">
          <syllabic>single</syllabic>
          <text>り</text>
          </lyric>
        </note>
      <note default-x="447.35" default-y="-30.00" dynamics="111.11">
        <pitch>
          <step>G</step>
          <octave>4</octave>
          </pitch>
        <duration>2</duration>
        <voice>1</voice>
        <type>eighth</type>
        <stem>up</stem>
        <beam number="1">continue</beam>
        <lyric number="1" default-x="6.50" default-y="-40.00" relative-y="-30.00">
          <syllabic>single</syllabic>
          <text>ば</text>
          </lyric>
        </note>
      <note default-x="510.13" default-y="-35.00" dynamics="111.11">
        <pitch>
          <step>F</step>
          <octave>4</octave>
          </pitch>
        <duration>2</duration>
        <voice>1</voice>
        <type>eighth</type>
        <stem>up</stem>
        <beam number="1">end</beam>
        <lyric number="1" default-x="6.50" default-y="-40.00" relative-y="-30.00">
          <syllabic>single</syllabic>
          <text>で</text>
          </lyric>
        </note>
      </measure>
    <measure number="12" width="511.00">
      <note>
        <rest/>
        <duration>4</duration>
        <voice>1</voice>
        <type>quarter</type>
        <notations>
          <articulations>
            <breath-mark/>
            </articulations>
          </notations>
        </note>
      <note default-x="132.52" default-y="-35.00" dynamics="111.11">
        <pitch>
          <step>F</step>
          <octave>4</octave>
          </pitch>
        <duration>2</duration>
        <voice>1</voice>
        <type>eighth</type>
        <stem>up</stem>
        <beam number="1">begin</beam>
        <lyric number="1" default-x="6.50" default-y="-40.00" relative-y="-30.00">
          <syllabic>single</syllabic>
          <text>さ</text>
          </lyric>
        </note>
      <note default-x="195.30" default-y="-35.00" dynamics="111.11">
        <pitch>
          <step>F</step>
          <octave>4</octave>
          </pitch>
        <duration>2</duration>
        <voice>1</voice>
        <type>eighth</type>
        <stem>up</stem>
        <beam number="1">end</beam>
        <lyric number="1" default-x="6.50" default-y="-40.00" relative-y="-30.00">
          <syllabic>single</syllabic>
          <text>さ</text>
          </lyric>
        </note>
      <note>
        <rest/>
        <duration>2</duration>
        <voice>1</voice>
        <type>eighth</type>
        </note>
      <note default-x="320.86" default-y="-35.00" dynamics="111.11">
        <pitch>
          <step>F</step>
          <octave>4</octave>
          </pitch>
        <duration>2</duration>
        <voice>1</voice>
        <type>eighth</type>
        <stem>up</stem>
        <beam number="1">begin</beam>
        <lyric number="1" default-x="6.50" default-y="-40.00" relative-y="-30.00">
          <syllabic>single</syllabic>
          <text>や</text>
          </lyric>
        </note>
      <note default-x="383.64" default-y="-35.00" dynamics="111.11">
        <pitch>
          <step>F</step>
          <octave>4</octave>
          </pitch>
        <duration>2</duration>
        <voice>1</voice>
        <type>eighth</type>
        <stem>up</stem>
        <beam number="1">continue</beam>
        <lyric number="1" default-x="6.50" default-y="-40.00" relative-y="-30.00">
          <syllabic>single</syllabic>
          <text>か</text>
          </lyric>
        </note>
      <note default-x="446.42" default-y="-35.00" dynamics="111.11">
        <pitch>
          <step>F</step>
          <octave>4</octave>
          </pitch>
        <duration>2</duration>
        <voice>1</voice>
        <type>eighth</type>
        <stem>up</stem>
        <beam number="1">end</beam>
        <lyric number="1" default-x="6.50" default-y="-40.00" relative-y="-30.00">
          <syllabic>single</syllabic>
          <text>な</text>
          </lyric>
        </note>
      </measure>
    <measure number="13" width="621.85">
      <print new-system="yes">
        <system-layout>
          <system-margins>
            <left-margin>0.00</left-margin>
            <right-margin>0.00</right-margin>
            </system-margins>
          <system-distance>103.36</system-distance>
          </system-layout>
        </print>
      <note>
        <rest/>
        <duration>4</duration>
        <voice>1</voice>
        <type>quarter</type>
        <notations>
          <articulations>
            <breath-mark/>
            </articulations>
          </notations>
        </note>
      <note default-x="206.16" default-y="-35.00" dynamics="111.11">
        <pitch>
          <step>F</step>
          <octave>4</octave>
          </pitch>
        <duration>2</duration>
        <voice>1</voice>
        <type>eighth</type>
        <stem>up</stem>
        <beam number="1">begin</beam>
        <lyric number="1" default-x="6.50" default-y="-40.00" relative-y="-30.00">
          <syllabic>single</syllabic>
          <text>さ</text>
          </lyric>
        </note>
      <note default-x="275.14" default-y="-35.00" dynamics="111.11">
        <pitch>
          <step>F</step>
          <octave>4</octave>
          </pitch>
        <duration>2</duration>
        <voice>1</voice>
        <type>eighth</type>
        <stem>up</stem>
        <beam number="1">end</beam>
        <lyric number="1" default-x="6.50" default-y="-40.00" relative-y="-30.00">
          <syllabic>single</syllabic>
          <text>よ</text>
          </lyric>
        </note>
      <note>
        <rest/>
        <duration>2</duration>
        <voice>1</voice>
        <type>eighth</type>
        </note>
      <note default-x="413.11" default-y="-30.00" dynamics="111.11">
        <pitch>
          <step>G</step>
          <octave>4</octave>
          </pitch>
        <duration>2</duration>
        <voice>1</voice>
        <type>eighth</type>
        <stem>up</stem>
        <beam number="1">begin</beam>
        <lyric number="1" default-x="6.50" default-y="-40.00" relative-y="-30.00">
          <syllabic>single</syllabic>
          <text>な</text>
          </lyric>
        </note>
      <note default-x="482.09" default-y="-30.00" dynamics="111.11">
        <pitch>
          <step>G</step>
          <octave>4</octave>
          </pitch>
        <duration>2</duration>
        <voice>1</voice>
        <type>eighth</type>
        <stem>up</stem>
        <beam number="1">continue</beam>
        <lyric number="1" default-x="6.50" default-y="-40.00" relative-y="-30.00">
          <syllabic>single</syllabic>
          <text>ら</text>
          </lyric>
        </note>
      <note default-x="551.07" default-y="-35.00" dynamics="111.11">
        <pitch>
          <step>F</step>
          <octave>4</octave>
          </pitch>
        <duration>2</duration>
        <voice>1</voice>
        <type>eighth</type>
        <stem>up</stem>
        <beam number="1">end</beam>
        <lyric number="1" default-x="6.50" default-y="-40.00" relative-y="-30.00">
          <syllabic>single</syllabic>
          <text>うぉ</text>
          </lyric>
        </note>
      </measure>
    <measure number="14" width="463.86">
      <note default-x="15.41" default-y="-25.00" dynamics="111.11">
        <pitch>
          <step>A</step>
          <octave>4</octave>
          </pitch>
        <duration>8</duration>
        <voice>1</voice>
        <type>half</type>
        <stem>up</stem>
        <lyric number="1" default-x="6.50" default-y="-40.00" relative-y="-30.00">
          <syllabic>single</syllabic>
          <text>か</text>
          </lyric>
        </note>
      <note default-x="204.56" default-y="-30.00" dynamics="111.11">
        <pitch>
          <step>G</step>
          <octave>4</octave>
          </pitch>
        <duration>4</duration>
        <voice>1</voice>
        <type>quarter</type>
        <stem>up</stem>
        <lyric number="1" default-x="6.50" default-y="-40.00" relative-y="-30.00">
          <syllabic>single</syllabic>
          <text>ぜ</text>
          </lyric>
        </note>
      <note default-x="322.77" default-y="-35.00" dynamics="111.11">
        <pitch>
          <step>F</step>
          <octave>4</octave>
          </pitch>
        <duration>4</duration>
        <voice>1</voice>
        <type>quarter</type>
        <stem>up</stem>
        <notations>
          <articulations>
            <breath-mark/>
            </articulations>
          </notations>
        <lyric number="1" default-x="6.50" default-y="-40.00" relative-y="-30.00">
          <syllabic>single</syllabic>
          <text>が</text>
          </lyric>
        </note>
      </measure>
    <measure number="15" width="594.41">
      <print new-system="yes">
        <system-layout>
          <system-margins>
            <left-margin>0.00</left-margin>
            <right-margin>0.00</right-margin>
            </system-margins>
          <system-distance>103.36</system-distance>
          </system-layout>
        </print>
      <note default-x="76.71" default-y="-25.00" dynamics="111.11">
        <pitch>
          <step>A</step>
          <octave>4</octave>
          </pitch>
        <duration>8</duration>
        <voice>1</voice>
        <type>half</type>
        <stem>up</stem>
        <lyric number="1" default-x="6.50" default-y="-40.00" relative-y="-30.00">
          <syllabic>single</syllabic>
          <text>か</text>
          </lyric>
        </note>
      <note default-x="306.00" default-y="-30.00" dynamics="111.11">
        <pitch>
          <step>G</step>
          <octave>4</octave>
          </pitch>
        <duration>4</duration>
        <voice>1</voice>
        <type>quarter</type>
        <stem>up</stem>
        <lyric number="1" default-x="6.50" default-y="-40.00" relative-y="-30.00">
          <syllabic>single</syllabic>
          <text>き</text>
          </lyric>
        </note>
      <note default-x="449.30" default-y="-35.00" dynamics="111.11">
        <pitch>
          <step>F</step>
          <octave>4</octave>
          </pitch>
        <duration>4</duration>
        <voice>1</voice>
        <type>quarter</type>
        <stem>up</stem>
        <lyric number="1" default-x="6.50" default-y="-40.00" relative-y="-30.00">
          <syllabic>single</syllabic>
          <text>け</text>
          </lyric>
        </note>
      </measure>
    <measure number="16" width="491.30">
      <note default-x="14.45" default-y="-30.00" dynamics="111.11">
        <pitch>
          <step>G</step>
          <octave>4</octave>
          </pitch>
        <duration>16</duration>
        <voice>1</voice>
        <type>whole</type>
        <lyric number="1" default-x="5.54" default-y="-40.00" relative-y="-30.00">
          <syllabic>single</syllabic>
          <text>す</text>
          </lyric>
        </note>
      </measure>
    <measure number="17" width="541.61">
      <print new-system="yes">
        <system-layout>
          <system-margins>
            <left-margin>0.00</left-margin>
            <right-margin>0.00</right-margin>
            </system-margins>
          <system-distance>103.36</system-distance>
          </system-layout>
        </print>
      <note>
        <rest/>
        <duration>8</duration>
        <voice>1</voice>
        <type>half</type>
        </note>
      <note>
        <rest/>
        <duration>2</duration>
        <voice>1</voice>
        <type>eighth</type>
        </note>
      <note>
        <rest/>
        <duration>1</duration>
        <voice>1</voice>
        <type>16th</type>
        <notations>
          <articulations>
            <breath-mark/>
            </articulations>
          </notations>
        </note>
      <note default-x="332.76" default-y="-60.00" dynamics="111.11">
        <pitch>
          <step>A</step>
          <octave>3</octave>
          </pitch>
        <duration>1</duration>
        <voice>1</voice>
        <type>16th</type>
        <stem>up</stem>
        <lyric number="1" default-x="6.50" default-y="-61.93" relative-y="-30.00">
          <syllabic>single</syllabic>
          <text>た</text>
          </lyric>
        </note>
      <note default-x="377.77" default-y="-35.00" dynamics="111.11">
        <pitch>
          <step>F</step>
          <octave>4</octave>
          </pitch>
        <duration>2</duration>
        <voice>1</voice>
        <type>eighth</type>
        <stem>up</stem>
        <beam number="1">begin</beam>
        <lyric number="1" default-x="6.50" default-y="-61.93" relative-y="-30.00">
          <syllabic>single</syllabic>
          <text>と</text>
          </lyric>
        </note>
      <note default-x="449.79" default-y="-40.00" dynamics="111.11">
        <pitch>
          <step>E</step>
          <octave>4</octave>
          </pitch>
        <duration>1</duration>
        <voice>1</voice>
        <type>16th</type>
        <stem>up</stem>
        <beam number="1">continue</beam>
        <beam number="2">begin</beam>
        <lyric number="1" default-x="6.50" default-y="-61.93" relative-y="-30.00">
          <syllabic>single</syllabic>
          <text>うぇ</text>
          </lyric>
        </note>
      <note default-x="494.80" default-y="-35.00" dynamics="111.11">
        <pitch>
          <step>F</step>
          <octave>4</octave>
          </pitch>
        <duration>1</duration>
        <tie type="start"/>
        <voice>1</voice>
        <type>16th</type>
        <stem>up</stem>
        <beam number="1">end</beam>
        <beam number="2">end</beam>
        <notations>
          <tied type="start"/>
          </notations>
        <lyric number="1" default-x="6.50" default-y="-61.93" relative-y="-30.00">
          <syllabic>single</syllabic>
          <text>ば</text>
          </lyric>
        </note>
      </measure>
    <measure number="18" width="544.11">
      <note default-x="13.00" default-y="-35.00" dynamics="111.11">
        <pitch>
          <step>F</step>
          <octave>4</octave>
          </pitch>
        <duration>2</duration>
        <tie type="stop"/>
        <voice>1</voice>
        <type>eighth</type>
        <stem>up</stem>
        <notations>
          <tied type="stop"/>
          </notations>
        </note>
      <note>
        <rest/>
        <duration>2</duration>
        <voice>1</voice>
        <type>eighth</type>
        <notations>
          <articulations>
            <breath-mark/>
            </articulations>
          </notations>
        </note>
      <note default-x="146.54" default-y="-45.00" dynamics="111.11">
        <pitch>
          <step>D</step>
          <octave>4</octave>
          </pitch>
        <duration>2</duration>
        <voice>1</voice>
        <type>eighth</type>
        <stem>up</stem>
        <beam number="1">begin</beam>
        <lyric number="1" default-x="6.50" default-y="-61.93" relative-y="-30.00">
          <syllabic>single</syllabic>
          <text>ぼ</text>
          </lyric>
        </note>
      <note default-x="206.81" default-y="-40.00" dynamics="111.11">
        <pitch>
          <step>E</step>
          <octave>4</octave>
          </pitch>
        <duration>1</duration>
        <voice>1</voice>
        <type>16th</type>
        <stem>up</stem>
        <beam number="1">continue</beam>
        <beam number="2">begin</beam>
        <lyric number="1" default-x="6.50" default-y="-61.93" relative-y="-30.00">
          <syllabic>single</syllabic>
          <text>く</text>
          </lyric>
        </note>
      <note default-x="244.48" default-y="-35.00" dynamics="111.11">
        <pitch>
          <step>F</step>
          <octave>4</octave>
          </pitch>
        <duration>1</duration>
        <tie type="start"/>
        <voice>1</voice>
        <type>16th</type>
        <stem>up</stem>
        <beam number="1">end</beam>
        <beam number="2">end</beam>
        <notations>
          <tied type="start"/>
          </notations>
        <lyric number="1" default-x="6.50" default-y="-61.93" relative-y="-30.00">
          <syllabic>single</syllabic>
          <text>が</text>
          </lyric>
        </note>
      <note default-x="282.15" default-y="-35.00" dynamics="111.11">
        <pitch>
          <step>F</step>
          <octave>4</octave>
          </pitch>
        <duration>2</duration>
        <tie type="stop"/>
        <voice>1</voice>
        <type>eighth</type>
        <stem>up</stem>
        <notations>
          <tied type="stop"/>
          </notations>
        </note>
      <note>
        <rest/>
        <duration>2</duration>
        <voice>1</voice>
        <type>eighth</type>
        <notations>
          <articulations>
            <breath-mark/>
            </articulations>
          </notations>
        </note>
      <note default-x="421.77" default-y="-35.00" dynamics="111.11">
        <pitch>
          <step>F</step>
          <octave>4</octave>
          </pitch>
        <duration>2</duration>
        <voice>1</voice>
        <type>eighth</type>
        <stem>up</stem>
        <beam number="1">begin</beam>
        <lyric number="1" default-x="6.50" default-y="-61.93" relative-y="-30.00">
          <syllabic>single</syllabic>
          <text>と</text>
          </lyric>
        </note>
      <note default-x="482.04" default-y="-30.00" dynamics="111.11">
        <pitch>
          <step>G</step>
          <octave>4</octave>
          </pitch>
        <duration>2</duration>
        <voice>1</voice>
        <type>eighth</type>
        <stem>up</stem>
        <beam number="1">end</beam>
        <lyric number="1" default-x="6.50" default-y="-61.93" relative-y="-30.00">
          <syllabic>single</syllabic>
          <text>うぉ</text>
          </lyric>
        </note>
      </measure>
    <measure number="19" width="541.49">
      <print new-system="yes">
        <system-layout>
          <system-margins>
            <left-margin>0.00</left-margin>
            <right-margin>0.00</right-margin>
            </system-margins>
          <system-distance>103.36</system-distance>
          </system-layout>
        </print>
      <note default-x="76.71" default-y="-25.00" dynamics="111.11">
        <pitch>
          <step>A</step>
          <octave>4</octave>
          </pitch>
        <duration>2</duration>
        <voice>1</voice>
        <type>eighth</type>
        <stem>up</stem>
        <beam number="1">begin</beam>
        <lyric number="1" default-x="6.50" default-y="-61.93" relative-y="-30.00">
          <syllabic>single</syllabic>
          <text>め</text>
          </lyric>
        </note>
      <note default-x="131.26" default-y="-20.00" dynamics="111.11">
        <pitch>
          <step>B</step>
          <alter>-1</alter>
          <octave>4</octave>
          </pitch>
        <duration>2</duration>
        <voice>1</voice>
        <type>eighth</type>
        <stem>up</stem>
        <beam number="1">end</beam>
        <lyric number="1" default-x="6.50" default-y="-61.93" relative-y="-30.00">
          <syllabic>single</syllabic>
          <text>い</text>
          </lyric>
        </note>
      <note default-x="185.80" default-y="-30.00" dynamics="111.11">
        <pitch>
          <step>G</step>
          <octave>4</octave>
          </pitch>
        <duration>2</duration>
        <voice>1</voice>
        <type>eighth</type>
        <stem>up</stem>
        <beam number="1">begin</beam>
        <lyric number="1" default-x="6.50" default-y="-61.93" relative-y="-30.00">
          <syllabic>single</syllabic>
          <text>な</text>
          </lyric>
        </note>
      <note default-x="240.34" default-y="-35.00" dynamics="111.11">
        <pitch>
          <step>F</step>
          <octave>4</octave>
          </pitch>
        <duration>1</duration>
        <voice>1</voice>
        <type>16th</type>
        <stem>up</stem>
        <beam number="1">continue</beam>
        <beam number="2">begin</beam>
        <lyric number="1" default-x="6.50" default-y="-61.93" relative-y="-30.00">
          <syllabic>single</syllabic>
          <text>ら</text>
          </lyric>
        </note>
      <note default-x="274.43" default-y="-30.00" dynamics="111.11">
        <pitch>
          <step>G</step>
          <octave>4</octave>
          </pitch>
        <duration>1</duration>
        <tie type="start"/>
        <voice>1</voice>
        <type>16th</type>
        <stem>up</stem>
        <beam number="1">end</beam>
        <beam number="2">end</beam>
        <notations>
          <tied type="start"/>
          </notations>
        <lyric number="1" default-x="6.50" default-y="-61.93" relative-y="-30.00">
          <syllabic>single</syllabic>
          <text>ば</text>
          </lyric>
        </note>
      <note default-x="308.52" default-y="-30.00" dynamics="111.11">
        <pitch>
          <step>G</step>
          <octave>4</octave>
          </pitch>
        <duration>2</duration>
        <tie type="stop"/>
        <voice>1</voice>
        <type>eighth</type>
        <stem>up</stem>
        <notations>
          <tied type="stop"/>
          </notations>
        </note>
      <note>
        <rest/>
        <duration>2</duration>
        <voice>1</voice>
        <type>eighth</type>
        <notations>
          <articulations>
            <breath-mark/>
            </articulations>
          </notations>
        </note>
      <note default-x="430.61" default-y="-45.00" dynamics="111.11">
        <pitch>
          <step>D</step>
          <octave>4</octave>
          </pitch>
        <duration>2</duration>
        <voice>1</voice>
        <type>eighth</type>
        <stem>up</stem>
        <beam number="1">begin</beam>
        <lyric number="1" default-x="6.50" default-y="-61.93" relative-y="-30.00">
          <syllabic>single</syllabic>
          <text>き</text>
          </lyric>
        </note>
      <note default-x="485.15" default-y="-40.00" dynamics="111.11">
        <pitch>
          <step>E</step>
          <octave>4</octave>
          </pitch>
        <duration>2</duration>
        <voice>1</voice>
        <type>eighth</type>
        <stem>up</stem>
        <beam number="1">end</beam>
        <lyric number="1" default-x="6.50" default-y="-61.93" relative-y="-30.00">
          <syllabic>single</syllabic>
          <text>み</text>
          </lyric>
        </note>
      </measure>
    <measure number="20" width="544.22">
      <note default-x="15.21" default-y="-35.00" dynamics="111.11">
        <pitch>
          <step>F</step>
          <octave>4</octave>
          </pitch>
        <duration>2</duration>
        <voice>1</voice>
        <type>eighth</type>
        <stem>up</stem>
        <beam number="1">begin</beam>
        <lyric number="1" default-x="6.50" default-y="-61.93" relative-y="-30.00">
          <syllabic>single</syllabic>
          <text>の</text>
          </lyric>
        </note>
      <note default-x="73.28" default-y="-50.00" dynamics="111.11">
        <pitch>
          <step>C</step>
          <octave>4</octave>
          </pitch>
        <duration>2</duration>
        <voice>1</voice>
        <type>eighth</type>
        <stem>up</stem>
        <beam number="1">continue</beam>
        <lyric number="1" default-x="6.50" default-y="-61.93" relative-y="-30.00">
          <syllabic>single</syllabic>
          <text>そ</text>
          </lyric>
        </note>
      <note default-x="131.36" default-y="-55.00" dynamics="111.11">
        <pitch>
          <step>B</step>
          <alter>-1</alter>
          <octave>3</octave>
          </pitch>
        <duration>2</duration>
        <voice>1</voice>
        <type>eighth</type>
        <stem>up</stem>
        <beam number="1">continue</beam>
        <lyric number="1" default-x="6.50" default-y="-61.93" relative-y="-30.00">
          <syllabic>single</syllabic>
          <text>ば</text>
          </lyric>
        </note>
      <note default-x="189.43" default-y="-50.00" dynamics="111.11">
        <pitch>
          <step>C</step>
          <octave>4</octave>
          </pitch>
        <duration>2</duration>
        <voice>1</voice>
        <type>eighth</type>
        <stem>up</stem>
        <beam number="1">end</beam>
        <lyric number="1" default-x="6.50" default-y="-61.93" relative-y="-30.00">
          <syllabic>single</syllabic>
          <text>で</text>
          </lyric>
        </note>
      <note default-x="247.50" default-y="-55.00" dynamics="111.11">
        <pitch>
          <step>B</step>
          <alter>-1</alter>
          <octave>3</octave>
          </pitch>
        <duration>2</duration>
        <voice>1</voice>
        <type>eighth</type>
        <stem>up</stem>
        <beam number="1">begin</beam>
        <lyric number="1" default-x="6.50" default-y="-61.93" relative-y="-30.00">
          <syllabic>single</syllabic>
          <text>ず</text>
          </lyric>
        </note>
      <note default-x="305.57" default-y="-60.00" dynamics="111.11">
        <pitch>
          <step>A</step>
          <octave>3</octave>
          </pitch>
        <duration>1</duration>
        <voice>1</voice>
        <type>16th</type>
        <stem>up</stem>
        <beam number="1">continue</beam>
        <beam number="2">begin</beam>
        <lyric number="1" default-x="6.50" default-y="-61.93" relative-y="-30.00">
          <syllabic>single</syllabic>
          <text>う</text>
          </lyric>
        </note>
      <note default-x="341.87" default-y="-35.00" dynamics="111.11">
        <pitch>
          <step>F</step>
          <octave>4</octave>
          </pitch>
        <duration>1</duration>
        <tie type="start"/>
        <voice>1</voice>
        <type>16th</type>
        <stem>up</stem>
        <beam number="1">end</beam>
        <beam number="2">end</beam>
        <notations>
          <tied type="start"/>
          </notations>
        <lyric number="1" default-x="6.50" default-y="-61.93" relative-y="-30.00">
          <syllabic>single</syllabic>
          <text>と</text>
          </lyric>
        </note>
      <note default-x="378.16" default-y="-35.00" dynamics="111.11">
        <pitch>
          <step>F</step>
          <octave>4</octave>
          </pitch>
        <duration>1</duration>
        <tie type="stop"/>
        <voice>1</voice>
        <type>16th</type>
        <stem>up</stem>
        <notations>
          <tied type="stop"/>
          </notations>
        </note>
      <note>
        <rest/>
        <duration>1</duration>
        <voice>1</voice>
        <type>16th</type>
        <notations>
          <articulations>
            <breath-mark/>
            </articulations>
          </notations>
        </note>
      <note default-x="469.83" default-y="-35.00" dynamics="111.11">
        <pitch>
          <step>F</step>
          <octave>4</octave>
          </pitch>
        <duration>1</duration>
        <voice>1</voice>
        <type>16th</type>
        <stem>up</stem>
        <beam number="1">begin</beam>
        <beam number="2">begin</beam>
        <lyric number="1" default-x="6.50" default-y="-61.93" relative-y="-30.00">
          <syllabic>single</syllabic>
          <text>み</text>
          </lyric>
        </note>
      <note default-x="506.13" default-y="-30.00" dynamics="111.11">
        <pitch>
          <step>G</step>
          <octave>4</octave>
          </pitch>
        <duration>1</duration>
        <voice>1</voice>
        <type>16th</type>
        <stem>up</stem>
        <beam number="1">end</beam>
        <beam number="2">end</beam>
        <lyric number="1" default-x="6.50" default-y="-61.93" relative-y="-30.00">
          <syllabic>single</syllabic>
          <text>て</text>
          </lyric>
        </note>
      </measure>
    <measure number="21" width="599.22">
      <print new-page="yes">
        <system-layout>
          <system-margins>
            <left-margin>0.00</left-margin>
            <right-margin>0.00</right-margin>
            </system-margins>
          <top-system-distance>70.00</top-system-distance>
          </system-layout>
        </print>
      <note default-x="76.71" default-y="-25.00" dynamics="111.11">
        <pitch>
          <step>A</step>
          <octave>4</octave>
          </pitch>
        <duration>2</duration>
        <voice>1</voice>
        <type>eighth</type>
        <stem>up</stem>
        <beam number="1">begin</beam>
        <lyric number="1" default-x="6.50" default-y="-61.53" relative-y="-30.00">
          <syllabic>single</syllabic>
          <text>い</text>
          </lyric>
        </note>
      <note default-x="133.12" default-y="-30.00" dynamics="111.11">
        <pitch>
          <step>G</step>
          <octave>4</octave>
          </pitch>
        <duration>1</duration>
        <voice>1</voice>
        <type>16th</type>
        <stem>up</stem>
        <beam number="1">continue</beam>
        <beam number="2">begin</beam>
        <lyric number="1" default-x="6.50" default-y="-61.53" relative-y="-30.00">
          <syllabic>single</syllabic>
          <text>た</text>
          </lyric>
        </note>
      <note default-x="168.38" default-y="-30.00" dynamics="111.11">
        <pitch>
          <step>G</step>
          <octave>4</octave>
          </pitch>
        <duration>1</duration>
        <tie type="start"/>
        <voice>1</voice>
        <type>16th</type>
        <stem>up</stem>
        <beam number="1">end</beam>
        <beam number="2">end</beam>
        <notations>
          <tied type="start"/>
          </notations>
        <lyric number="1" default-x="6.50" default-y="-61.53" relative-y="-30.00">
          <syllabic>single</syllabic>
          <text>い</text>
          </lyric>
        </note>
      <note default-x="203.64" default-y="-30.00" dynamics="111.11">
        <pitch>
          <step>G</step>
          <octave>4</octave>
          </pitch>
        <duration>1</duration>
        <tie type="stop"/>
        <voice>1</voice>
        <type>16th</type>
        <stem>up</stem>
        <beam number="1">begin</beam>
        <beam number="2">forward hook</beam>
        <notations>
          <tied type="stop"/>
          </notations>
        </note>
      <note default-x="238.90" default-y="-35.00" dynamics="111.11">
        <pitch>
          <step>F</step>
          <octave>4</octave>
          </pitch>
        <duration>2</duration>
        <voice>1</voice>
        <type>eighth</type>
        <stem>up</stem>
        <beam number="1">continue</beam>
        <lyric number="1" default-x="6.50" default-y="-61.53" relative-y="-30.00">
          <syllabic>single</syllabic>
          <text>け</text>
          </lyric>
        </note>
      <note default-x="295.31" default-y="-30.00" dynamics="111.11">
        <pitch>
          <step>G</step>
          <octave>4</octave>
          </pitch>
        <duration>1</duration>
        <tie type="start"/>
        <voice>1</voice>
        <type>16th</type>
        <stem>up</stem>
        <beam number="1">end</beam>
        <beam number="2">backward hook</beam>
        <notations>
          <tied type="start"/>
          </notations>
        <lyric number="1" default-x="6.50" default-y="-61.53" relative-y="-30.00">
          <syllabic>single</syllabic>
          <text>ど</text>
          </lyric>
        </note>
      <note default-x="330.57" default-y="-30.00" dynamics="111.11">
        <pitch>
          <step>G</step>
          <octave>4</octave>
          </pitch>
        <duration>2</duration>
        <tie type="stop"/>
        <voice>1</voice>
        <type>eighth</type>
        <stem>up</stem>
        <notations>
          <tied type="stop"/>
          </notations>
        </note>
      <note>
        <rest/>
        <duration>1</duration>
        <voice>1</voice>
        <type>16th</type>
        <notations>
          <articulations>
            <breath-mark/>
            </articulations>
          </notations>
        </note>
      <note default-x="435.24" default-y="-60.00" dynamics="111.11">
        <pitch>
          <step>A</step>
          <octave>3</octave>
          </pitch>
        <duration>1</duration>
        <voice>1</voice>
        <type>16th</type>
        <stem>up</stem>
        <lyric number="1" default-x="6.50" default-y="-61.53" relative-y="-30.00">
          <syllabic>single</syllabic>
          <text>ま</text>
          </lyric>
        </note>
      <note default-x="470.50" default-y="-35.00" dynamics="111.11">
        <pitch>
          <step>F</step>
          <octave>4</octave>
          </pitch>
        <duration>2</duration>
        <voice>1</voice>
        <type>eighth</type>
        <stem>up</stem>
        <beam number="1">begin</beam>
        <lyric number="1" default-x="6.50" default-y="-61.53" relative-y="-30.00">
          <syllabic>single</syllabic>
          <text>ぶ</text>
          </lyric>
        </note>
      <note default-x="526.91" default-y="-40.00" dynamics="111.11">
        <pitch>
          <step>E</step>
          <octave>4</octave>
          </pitch>
        <duration>1</duration>
        <voice>1</voice>
        <type>16th</type>
        <stem>up</stem>
        <beam number="1">continue</beam>
        <beam number="2">begin</beam>
        <lyric number="1" default-x="6.50" default-y="-61.53" relative-y="-30.00">
          <syllabic>single</syllabic>
          <text>し</text>
          </lyric>
        </note>
      <note default-x="562.17" default-y="-35.00" dynamics="111.11">
        <pitch>
          <step>F</step>
          <octave>4</octave>
          </pitch>
        <duration>1</duration>
        <tie type="start"/>
        <voice>1</voice>
        <type>16th</type>
        <stem>up</stem>
        <beam number="1">end</beam>
        <beam number="2">end</beam>
        <notations>
          <tied type="start"/>
          </notations>
        <lyric number="1" default-x="6.50" default-y="-61.53" relative-y="-30.00">
          <syllabic>single</syllabic>
          <text>い</text>
          </lyric>
        </note>
      </measure>
    <measure number="22" width="486.49">
      <note default-x="13.00" default-y="-35.00" dynamics="111.11">
        <pitch>
          <step>F</step>
          <octave>4</octave>
          </pitch>
        <duration>2</duration>
        <tie type="stop"/>
        <voice>1</voice>
        <type>eighth</type>
        <stem>up</stem>
        <notations>
          <tied type="stop"/>
          </notations>
        </note>
      <note>
        <rest/>
        <duration>2</duration>
        <voice>1</voice>
        <type>eighth</type>
        <notations>
          <articulations>
            <breath-mark/>
            </articulations>
          </notations>
        </note>
      <note default-x="132.57" default-y="-45.00" dynamics="111.11">
        <pitch>
          <step>D</step>
          <octave>4</octave>
          </pitch>
        <duration>2</duration>
        <voice>1</voice>
        <type>eighth</type>
        <stem>up</stem>
        <beam number="1">begin</beam>
        <lyric number="1" default-x="6.50" default-y="-61.53" relative-y="-30.00">
          <syllabic>single</syllabic>
          <text>き</text>
          </lyric>
        </note>
      <note default-x="185.86" default-y="-40.00" dynamics="111.11">
        <pitch>
          <step>E</step>
          <octave>4</octave>
          </pitch>
        <duration>1</duration>
        <voice>1</voice>
        <type>16th</type>
        <stem>up</stem>
        <beam number="1">continue</beam>
        <beam number="2">begin</beam>
        <lyric number="1" default-x="6.50" default-y="-61.53" relative-y="-30.00">
          <syllabic>single</syllabic>
          <text>み</text>
          </lyric>
        </note>
      <note default-x="219.16" default-y="-35.00" dynamics="111.11">
        <pitch>
          <step>F</step>
          <octave>4</octave>
          </pitch>
        <duration>1</duration>
        <tie type="start"/>
        <voice>1</voice>
        <type>16th</type>
        <stem>up</stem>
        <beam number="1">end</beam>
        <beam number="2">end</beam>
        <notations>
          <tied type="start"/>
          </notations>
        <lyric number="1" default-x="6.50" default-y="-61.53" relative-y="-30.00">
          <syllabic>single</syllabic>
          <text>に</text>
          </lyric>
        </note>
      <note default-x="252.47" default-y="-35.00" dynamics="111.11">
        <pitch>
          <step>F</step>
          <octave>4</octave>
          </pitch>
        <duration>2</duration>
        <tie type="stop"/>
        <voice>1</voice>
        <type>eighth</type>
        <stem>up</stem>
        <notations>
          <tied type="stop"/>
          </notations>
        </note>
      <note>
        <rest/>
        <duration>2</duration>
        <voice>1</voice>
        <type>eighth</type>
        <notations>
          <articulations>
            <breath-mark/>
            </articulations>
          </notations>
        </note>
      <note default-x="378.12" default-y="-35.00" dynamics="111.11">
        <pitch>
          <step>F</step>
          <octave>4</octave>
          </pitch>
        <duration>2</duration>
        <voice>1</voice>
        <type>eighth</type>
        <stem>up</stem>
        <beam number="1">begin</beam>
        <lyric number="1" default-x="6.50" default-y="-61.53" relative-y="-30.00">
          <syllabic>single</syllabic>
          <text>ぼ</text>
          </lyric>
        </note>
      <note default-x="431.40" default-y="-30.00" dynamics="111.11">
        <pitch>
          <step>G</step>
          <octave>4</octave>
          </pitch>
        <duration>2</duration>
        <voice>1</voice>
        <type>eighth</type>
        <stem>up</stem>
        <beam number="1">end</beam>
        <lyric number="1" default-x="6.50" default-y="-61.53" relative-y="-30.00">
          <syllabic>single</syllabic>
          <text>く</text>
          </lyric>
        </note>
      </measure>
    <measure number="23" width="539.70">
      <print new-page="yes">
        <system-layout>
          <system-margins>
            <left-margin>0.00</left-margin>
            <right-margin>0.00</right-margin>
            </system-margins>
          <top-system-distance>70.00</top-system-distance>
          </system-layout>
        </print>
      <note default-x="76.71" default-y="-25.00" dynamics="111.11">
        <pitch>
          <step>A</step>
          <octave>4</octave>
          </pitch>
        <duration>2</duration>
        <voice>1</voice>
        <type>eighth</type>
        <stem>up</stem>
        <beam number="1">begin</beam>
        <lyric number="1" default-x="6.50" default-y="-61.93" relative-y="-30.00">
          <syllabic>single</syllabic>
          <text>わ</text>
          </lyric>
        </note>
      <note default-x="131.04" default-y="-20.00" dynamics="111.11">
        <pitch>
          <step>B</step>
          <alter>-1</alter>
          <octave>4</octave>
          </pitch>
        <duration>2</duration>
        <voice>1</voice>
        <type>eighth</type>
        <stem>up</stem>
        <beam number="1">end</beam>
        <lyric number="1" default-x="6.50" default-y="-61.93" relative-y="-30.00">
          <syllabic>single</syllabic>
          <text>い</text>
          </lyric>
        </note>
      <note default-x="185.36" default-y="-30.00" dynamics="111.11">
        <pitch>
          <step>G</step>
          <octave>4</octave>
          </pitch>
        <duration>2</duration>
        <voice>1</voice>
        <type>eighth</type>
        <stem>up</stem>
        <beam number="1">begin</beam>
        <lyric number="1" default-x="6.50" default-y="-61.93" relative-y="-30.00">
          <syllabic>single</syllabic>
          <text>ら</text>
          </lyric>
        </note>
      <note default-x="239.69" default-y="-35.00" dynamics="111.11">
        <pitch>
          <step>F</step>
          <octave>4</octave>
          </pitch>
        <duration>1</duration>
        <voice>1</voice>
        <type>16th</type>
        <stem>up</stem>
        <beam number="1">continue</beam>
        <beam number="2">begin</beam>
        <lyric number="1" default-x="6.50" default-y="-61.93" relative-y="-30.00">
          <syllabic>single</syllabic>
          <text>な</text>
          </lyric>
        </note>
      <note default-x="273.64" default-y="-30.00" dynamics="111.11">
        <pitch>
          <step>G</step>
          <octave>4</octave>
          </pitch>
        <duration>1</duration>
        <tie type="start"/>
        <voice>1</voice>
        <type>16th</type>
        <stem>up</stem>
        <beam number="1">end</beam>
        <beam number="2">end</beam>
        <notations>
          <tied type="start"/>
          </notations>
        <lyric number="1" default-x="6.50" default-y="-61.93" relative-y="-30.00">
          <syllabic>single</syllabic>
          <text>い</text>
          </lyric>
        </note>
      <note default-x="307.60" default-y="-30.00" dynamics="111.11">
        <pitch>
          <step>G</step>
          <octave>4</octave>
          </pitch>
        <duration>2</duration>
        <tie type="stop"/>
        <voice>1</voice>
        <type>eighth</type>
        <stem>up</stem>
        <notations>
          <tied type="stop"/>
          </notations>
        </note>
      <note>
        <rest/>
        <duration>2</duration>
        <voice>1</voice>
        <type>eighth</type>
        <notations>
          <articulations>
            <breath-mark/>
            </articulations>
          </notations>
        </note>
      <note default-x="429.25" default-y="-45.00" dynamics="111.11">
        <pitch>
          <step>D</step>
          <octave>4</octave>
          </pitch>
        <duration>2</duration>
        <voice>1</voice>
        <type>eighth</type>
        <stem>up</stem>
        <beam number="1">begin</beam>
        <lyric number="1" default-x="6.50" default-y="-61.93" relative-y="-30.00">
          <syllabic>single</syllabic>
          <text>あ</text>
          </lyric>
        </note>
      <note default-x="483.57" default-y="-40.00" dynamics="111.11">
        <pitch>
          <step>E</step>
          <octave>4</octave>
          </pitch>
        <duration>2</duration>
        <voice>1</voice>
        <type>eighth</type>
        <stem>up</stem>
        <beam number="1">end</beam>
        <lyric number="1" default-x="6.50" default-y="-61.93" relative-y="-30.00">
          <syllabic>single</syllabic>
          <text>い</text>
          </lyric>
        </note>
      </measure>
    <measure number="24" width="546.02">
      <note default-x="15.41" default-y="-35.00" dynamics="111.11">
        <pitch>
          <step>F</step>
          <octave>4</octave>
          </pitch>
        <duration>2</duration>
        <voice>1</voice>
        <type>eighth</type>
        <stem>up</stem>
        <beam number="1">begin</beam>
        <lyric number="1" default-x="6.50" default-y="-61.93" relative-y="-30.00">
          <syllabic>single</syllabic>
          <text>か</text>
          </lyric>
        </note>
      <note default-x="73.67" default-y="-50.00" dynamics="111.11">
        <pitch>
          <step>C</step>
          <octave>4</octave>
          </pitch>
        <duration>2</duration>
        <voice>1</voice>
        <type>eighth</type>
        <stem>up</stem>
        <beam number="1">continue</beam>
        <lyric number="1" default-x="6.50" default-y="-61.93" relative-y="-30.00">
          <syllabic>single</syllabic>
          <text>わ</text>
          </lyric>
        </note>
      <note default-x="131.92" default-y="-55.00" dynamics="111.11">
        <pitch>
          <step>B</step>
          <alter>-1</alter>
          <octave>3</octave>
          </pitch>
        <duration>2</duration>
        <voice>1</voice>
        <type>eighth</type>
        <stem>up</stem>
        <beam number="1">continue</beam>
        <lyric number="1" default-x="6.50" default-y="-61.93" relative-y="-30.00">
          <syllabic>single</syllabic>
          <text>ら</text>
          </lyric>
        </note>
      <note default-x="190.18" default-y="-50.00" dynamics="111.11">
        <pitch>
          <step>C</step>
          <octave>4</octave>
          </pitch>
        <duration>2</duration>
        <voice>1</voice>
        <type>eighth</type>
        <stem>up</stem>
        <beam number="1">end</beam>
        <lyric number="1" default-x="6.50" default-y="-61.93" relative-y="-30.00">
          <syllabic>single</syllabic>
          <text>ず</text>
          </lyric>
        </note>
      <note default-x="248.43" default-y="-55.00" dynamics="111.11">
        <pitch>
          <step>B</step>
          <alter>-1</alter>
          <octave>3</octave>
          </pitch>
        <duration>2</duration>
        <voice>1</voice>
        <type>eighth</type>
        <stem>up</stem>
        <beam number="1">begin</beam>
        <lyric number="1" default-x="6.50" default-y="-61.93" relative-y="-30.00">
          <syllabic>single</syllabic>
          <text>だ</text>
          </lyric>
        </note>
      <note default-x="306.68" default-y="-60.00" dynamics="111.11">
        <pitch>
          <step>A</step>
          <octave>3</octave>
          </pitch>
        <duration>1</duration>
        <voice>1</voice>
        <type>16th</type>
        <stem>up</stem>
        <beam number="1">continue</beam>
        <beam number="2">begin</beam>
        <lyric number="1" default-x="6.50" default-y="-61.93" relative-y="-30.00">
          <syllabic>single</syllabic>
          <text>あ</text>
          </lyric>
        </note>
      <note default-x="343.09" default-y="-35.00" dynamics="111.11">
        <pitch>
          <step>F</step>
          <octave>4</octave>
          </pitch>
        <duration>1</duration>
        <tie type="start"/>
        <voice>1</voice>
        <type>16th</type>
        <stem>up</stem>
        <beam number="1">end</beam>
        <beam number="2">end</beam>
        <notations>
          <tied type="start"/>
          </notations>
        <lyric number="1" default-x="6.50" default-y="-61.93" relative-y="-30.00">
          <syllabic>single</syllabic>
          <text>て</text>
          </lyric>
        </note>
      <note default-x="379.50" default-y="-35.00" dynamics="111.11">
        <pitch>
          <step>F</step>
          <octave>4</octave>
          </pitch>
        <duration>1</duration>
        <tie type="stop"/>
        <voice>1</voice>
        <type>16th</type>
        <stem>up</stem>
        <notations>
          <tied type="stop"/>
          </notations>
        </note>
      <note>
        <rest/>
        <duration>1</duration>
        <voice>1</voice>
        <type>16th</type>
        <notations>
          <articulations>
            <breath-mark/>
            </articulations>
          </notations>
        </note>
      <note default-x="471.40" default-y="-35.00" dynamics="111.11">
        <pitch>
          <step>F</step>
          <octave>4</octave>
          </pitch>
        <duration>1</duration>
        <voice>1</voice>
        <type>16th</type>
        <stem>up</stem>
        <beam number="1">begin</beam>
        <beam number="2">begin</beam>
        <lyric number="1" default-x="6.50" default-y="-61.93" relative-y="-30.00">
          <syllabic>single</syllabic>
          <text>う</text>
          </lyric>
        </note>
      <note default-x="507.81" default-y="-30.00" dynamics="111.11">
        <pitch>
          <step>G</step>
          <octave>4</octave>
          </pitch>
        <duration>1</duration>
        <voice>1</voice>
        <type>16th</type>
        <stem>up</stem>
        <beam number="1">end</beam>
        <beam number="2">end</beam>
        <lyric number="1" default-x="6.50" default-y="-61.93" relative-y="-30.00">
          <syllabic>single</syllabic>
          <text>け</text>
          </lyric>
        </note>
      </measure>
    <measure number="25" width="546.25">
      <print new-system="yes">
        <system-layout>
          <system-margins>
            <left-margin>0.00</left-margin>
            <right-margin>0.00</right-margin>
            </system-margins>
          <system-distance>150.00</system-distance>
          </system-layout>
        </print>
      <note default-x="76.71" default-y="-25.00" dynamics="111.11">
        <pitch>
          <step>A</step>
          <octave>4</octave>
          </pitch>
        <duration>8</duration>
        <voice>1</voice>
        <type>half</type>
        <stem>up</stem>
        <lyric number="1" default-x="6.50" default-y="-47.52" relative-y="-30.00">
          <syllabic>single</syllabic>
          <text>と</text>
          </lyric>
        </note>
      <note default-x="310.58" default-y="-20.00" dynamics="111.11">
        <pitch>
          <step>B</step>
          <alter>-1</alter>
          <octave>4</octave>
          </pitch>
        <duration>8</duration>
        <voice>1</voice>
        <type>half</type>
        <stem>down</stem>
        <lyric number="1" default-x="6.50" default-y="-47.52" relative-y="-30.00">
          <syllabic>single</syllabic>
          <text>め</text>
          </lyric>
        </note>
      </measure>
    <measure number="26" width="539.46">
      <note default-x="14.20" default-y="-30.00" dynamics="111.11">
        <pitch>
          <step>G</step>
          <octave>4</octave>
          </pitch>
        <duration>12</duration>
        <voice>1</voice>
        <type>half</type>
        <dot/>
        <stem>up</stem>
        <lyric number="1" default-x="6.50" default-y="-47.52" relative-y="-30.00">
          <syllabic>single</syllabic>
          <text>る</text>
          </lyric>
        </note>
      <note>
        <rest/>
        <duration>2</duration>
        <voice>1</voice>
        <type>eighth</type>
        <notations>
          <articulations>
            <breath-mark/>
            </articulations>
          </notations>
        </note>
      <note default-x="426.83" default-y="-40.00" dynamics="111.11">
        <pitch>
          <step>E</step>
          <octave>4</octave>
          </pitch>
        <duration>2</duration>
        <voice>1</voice>
        <type>eighth</type>
        <stem>up</stem>
        <lyric number="1" default-x="6.50" default-y="-47.52" relative-y="-30.00">
          <syllabic>single</syllabic>
          <text>き</text>
          </lyric>
        </note>
      </measure>
    <measure number="27" width="239.98">
      <print new-system="yes">
        <system-layout>
          <system-margins>
            <left-margin>0.00</left-margin>
            <right-margin>689.42</right-margin>
            </system-margins>
          <system-distance>150.00</system-distance>
          </system-layout>
        </print>
      <note default-x="76.71" default-y="-35.00" dynamics="111.11">
        <pitch>
          <step>F</step>
          <octave>4</octave>
          </pitch>
        <duration>12</duration>
        <voice>1</voice>
        <type>half</type>
        <dot/>
        <stem>up</stem>
        <lyric number="1" default-x="6.50" default-y="-40.00" relative-y="-30.00">
          <syllabic>single</syllabic>
          <text>み</text>
          </lyric>
        </note>
      <note>
        <rest/>
        <duration>4</duration>
        <voice>1</voice>
        <type>quarter</type>
        </note>
      </measure>
    <measure number="28" width="156.32">
      <note>
        <rest measure="yes"/>
        <duration>16</duration>
        <voice>1</voice>
        </note>
      <barline location="right">
        <bar-style>light-heavy</bar-style>
        </barline>
      </measure>
    </part>
  </score-partwise>
